<svg viewBox="0 0 420 260" xmlns="http://www.w3.org/2000/svg">
  <defs>
    <linearGradient id="contactStroke" x1="84" y1="190" x2="328" y2="74" gradientUnits="userSpaceOnUse">
      <stop offset="0%" stop-color="#2DD4BF"/>
      <stop offset="55%" stop-color="#38BDF8"/>
      <stop offset="100%" stop-color="#2DD4BF"/>
    </linearGradient>
    <filter id="contactGlow" x="-40%" y="-40%" width="180%" height="180%">
      <feGaussianBlur stdDeviation="5" result="blur"/>
      <feMerge>
        <feMergeNode in="blur"/>
        <feMergeNode in="SourceGraphic"/>
      </feMerge>
    </filter>
  </defs>

  <circle cx="302" cy="76" r="62" fill="#2DD4BF" fill-opacity="0.08" filter="url(#contactGlow)"/>
  <circle cx="146" cy="176" r="78" fill="#38BDF8" fill-opacity="0.06" filter="url(#contactGlow)"/>

  <path d="M96 184C146 184 164 146 208 146C250 146 264 108 324 108" stroke="#334155" stroke-width="2" fill="none" stroke-dasharray="6 8"/>
  <path d="M96 172C146 172 166 134 208 134C250 134 264 96 324 96" stroke="url(#contactStroke)" stroke-width="5" fill="none" stroke-linecap="round" filter="url(#contactGlow)"/>

  <g transform="translate(94 142)">
    <circle cx="0" cy="30" r="34" fill="#111827" stroke="#334155" stroke-width="1.5"/>
    <rect x="-14" y="12" width="28" height="22" rx="6" fill="#0B1220" stroke="#2DD4BF" stroke-width="1.8"/>
    <polyline points="-14,14 0,26 14,14" fill="none" stroke="#2DD4BF" stroke-width="1.8"/>
  </g>

  <g transform="translate(210 104)">
    <circle cx="0" cy="30" r="28" fill="#111827" stroke="#334155" stroke-width="1.5"/>
    <circle cx="-8" cy="26" r="4" fill="#2DD4BF"/>
    <circle cx="4" cy="26" r="4" fill="#38BDF8"/>
    <circle cx="16" cy="26" r="4" fill="#2DD4BF"/>
    <path d="M-6 46l-8 10 18-8" fill="#111827" stroke="#334155" stroke-width="1" stroke-linejoin="round"/>
  </g>

  <g transform="translate(324 66)">
    <circle cx="0" cy="30" r="36" fill="#111827" stroke="#334155" stroke-width="1.5"/>
    <circle cx="0" cy="30" r="18" fill="none" stroke="#334155" stroke-width="6"/>
    <circle cx="0" cy="30" r="18" fill="none" stroke="#2DD4BF" stroke-width="6" stroke-dasharray="58 112" stroke-dashoffset="10" transform="rotate(-90 0 30)" filter="url(#contactGlow)"/>
    <circle cx="0" cy="30" r="5" fill="#38BDF8"/>
  </g>

  <rect x="248" y="166" width="96" height="42" rx="14" fill="#111827" stroke="#334155" stroke-width="1.2"/>
  <rect x="268" y="182" width="18" height="6" rx="3" fill="#2DD4BF" fill-opacity="0.55"/>
  <rect x="294" y="182" width="22" height="6" rx="3" fill="#38BDF8" fill-opacity="0.42"/>
</svg>
