<svg viewBox="0 0 700 180" xmlns="http://www.w3.org/2000/svg">
  <defs>
    <linearGradient id="processLine" x1="88" y1="90" x2="612" y2="90" gradientUnits="userSpaceOnUse">
      <stop offset="0%" stop-color="#2DD4BF"/>
      <stop offset="50%" stop-color="#38BDF8"/>
      <stop offset="100%" stop-color="#2DD4BF"/>
    </linearGradient>
    <filter id="processGlow" x="-40%" y="-40%" width="180%" height="180%">
      <feGaussianBlur stdDeviation="3.5" result="blur"/>
      <feMerge>
        <feMergeNode in="blur"/>
        <feMergeNode in="SourceGraphic"/>
      </feMerge>
    </filter>
  </defs>

  <path d="M88 104C144 104 156 72 220 72C284 72 298 116 364 116C432 116 442 78 508 78C560 78 580 96 612 96" stroke="#334155" stroke-width="2" fill="none" stroke-dasharray="7 9"/>
  <path d="M88 94C144 94 160 62 220 62C286 62 298 106 364 106C430 106 446 68 508 68C560 68 580 86 612 86" stroke="url(#processLine)" stroke-width="5" fill="none" stroke-linecap="round" filter="url(#processGlow)"/>

  <g transform="translate(88 94)">
    <circle cx="0" cy="0" r="28" fill="#111827" stroke="#334155" stroke-width="1.5"/>
    <circle cx="-3" cy="-4" r="11" fill="none" stroke="#2DD4BF" stroke-width="2.5" filter="url(#processGlow)"/>
    <line x1="5" y1="4" x2="13" y2="12" stroke="#2DD4BF" stroke-width="2.5" stroke-linecap="round"/>
  </g>

  <g transform="translate(220 62)">
    <circle cx="0" cy="0" r="28" fill="#111827" stroke="#334155" stroke-width="1.5"/>
    <circle cx="0" cy="0" r="14" fill="none" stroke="#334155" stroke-width="2"/>
    <circle cx="0" cy="0" r="7" fill="#2DD4BF" filter="url(#processGlow)"/>
    <line x1="10" y1="-10" x2="18" y2="-18" stroke="#2DD4BF" stroke-width="2.5" stroke-linecap="round"/>
  </g>

  <g transform="translate(364 106)">
    <circle cx="0" cy="0" r="28" fill="#111827" stroke="#334155" stroke-width="1.5"/>
    <rect x="-16" y="-12" width="32" height="24" rx="5" fill="#0B1220" stroke="#334155" stroke-width="1"/>
    <rect x="-10" y="-6" width="14" height="3" rx="1.5" fill="#243244"/>
    <rect x="-10" y="0" width="18" height="3" rx="1.5" fill="#2DD4BF" fill-opacity="0.6"/>
    <circle cx="12" cy="-12" r="6" fill="#0B1220" stroke="#2DD4BF" stroke-width="1.5"/>
    <polyline points="9,-12 12,-9 16,-15" stroke="#2DD4BF" stroke-width="1.4" fill="none" stroke-linecap="round"/>
  </g>

  <g transform="translate(508 68)">
    <circle cx="0" cy="0" r="28" fill="#111827" stroke="#334155" stroke-width="1.5"/>
    <polyline points="-12,10 -2,0 8,-4 18,-16" stroke="#2DD4BF" stroke-width="3" fill="none" filter="url(#processGlow)"/>
    <polygon points="14,-16 20,-20 22,-10" fill="#2DD4BF"/>
  </g>

  <g transform="translate(612 86)">
    <circle cx="0" cy="0" r="24" fill="#111827" stroke="#334155" stroke-width="1.5"/>
    <circle cx="0" cy="0" r="8" fill="#2DD4BF" filter="url(#processGlow)"/>
  </g>
</svg>
