<svg width="768" height="768" viewBox="0 0 768 768" fill="none" xmlns="http://www.w3.org/2000/svg">
	<defs>
		<linearGradient id="shieldGradient" x1="228" y1="151" x2="559" y2="486" gradientUnits="userSpaceOnUse">
			<stop offset="0" stop-color="#45D0B0"/>
			<stop offset="1" stop-color="#0B7F73"/>
		</linearGradient>
		<linearGradient id="ringGradient" x1="96" y1="88" x2="676" y2="684" gradientUnits="userSpaceOnUse">
			<stop offset="0" stop-color="#39D4BF"/>
			<stop offset="1" stop-color="#159A89"/>
		</linearGradient>
	</defs>
	<rect width="768" height="768" fill="white"/>
	<circle cx="384" cy="384" r="364" stroke="url(#ringGradient)" stroke-width="14"/>
	<path d="M384.69 151C340.33 180.43 289.78 192.14 238.79 193.36C236.76 228.3 237.84 264.48 245.46 299.61L321.94 223.13C316.59 208.26 316.54 191.74 323.73 176.84C335.83 151.74 366.07 141.2 391.15 153.3C416.23 165.4 426.79 195.65 414.69 220.75C407.5 235.66 394.44 246.19 379.9 250.98L350.64 280.24L395.88 325.48L488.4 232.97C484.11 228.34 480.78 222.89 478.7 216.66C470.01 190.69 484.03 162.61 510 153.92C535.98 145.22 564.05 159.25 572.74 185.22C581.44 211.18 567.42 239.26 541.45 247.95C535.22 250.04 528.83 250.82 522.62 250.41L391.44 381.6L318.85 309.02L281.79 346.08L338.53 402.82L402.8 338.54C396.59 326.14 395.49 311.05 401.17 297.86C411.96 272.79 441.04 261.22 466.11 272.01C491.18 282.79 502.74 311.88 491.96 336.95C486.27 350.15 476.08 360.02 463.83 365.32V398.01L418.46 443.37V418.37L440.94 395.89V365.32C435.82 363.1 431.12 360.07 427.04 356.31L338.53 444.82L249.57 355.86C270.37 411.71 309.26 459.71 385.24 486.83C502.8 444.66 531.12 333.43 528.53 202.14C478.58 196.77 428.92 182.53 384.69 151Z" fill="url(#shieldGradient)"/>
	<path d="M322.89 562.4H297.86C289.55 562.4 283.93 558.19 281.01 552.7L263.12 565.42C269.46 579.44 283.79 589.45 301.27 589.45H332.15C351.88 589.45 365.4 576.4 365.4 557.61C365.4 540.34 355.24 528.29 335.71 523.3L313.7 517.79C303.7 515.3 298.44 511.34 298.44 504.57C298.44 496.48 304.57 491.1 314.86 491.1H338.18C346.49 491.1 352.09 495.31 354.83 500.8L372.72 488.08C366.38 474.06 352.05 464.05 334.59 464.05H304.44C285.65 464.05 272.13 476.75 272.13 494.78C272.13 511.34 281.8 523.1 301.27 528.29L323.28 533.99C333.95 536.75 339.09 541.16 339.09 548.37C339.09 556.3 332.96 562.4 322.89 562.4Z" fill="#172036"/>
	<path d="M392.66 466.24H420.87V586.9H392.66V466.24Z" fill="#172036"/>
	<path d="M496.44 464.05C460.3 464.05 435.49 490.61 435.49 526.75C435.49 562.89 460.3 589.45 496.44 589.45C531.5 589.45 555.88 564.79 555.88 526.75C555.88 488.71 531.5 464.05 496.44 464.05ZM496.44 561.99C477.57 561.99 464.06 547.57 464.06 526.75C464.06 505.92 477.57 491.5 496.44 491.5C515.27 491.5 527.31 505.92 527.31 526.75C527.31 547.57 515.27 561.99 496.44 561.99Z" fill="#45D0B0"/>
	<path d="M563.42 586.9H593.16L603.37 558.93H649.71L659.89 586.9H690L644.24 466.24H609.63L563.42 586.9ZM611.92 535.58L626.52 495.53L641.15 535.58H611.92Z" fill="#45D0B0"/>
	<path d="M154.81 608.58V597.08H163.64C165.7 597.08 167.33 597.66 168.53 598.82C169.73 599.98 170.33 601.5 170.33 603.39C170.33 605.29 169.73 606.81 168.53 607.95C167.33 609.1 165.7 609.67 163.64 609.67H156.71V620.85H154.81V608.58ZM156.71 607.9H163.54C165.07 607.9 166.28 607.49 167.17 606.67C168.06 605.85 168.5 604.76 168.5 603.39C168.5 602.03 168.06 600.94 167.17 600.11C166.28 599.28 165.07 598.86 163.54 598.86H156.71V607.9Z" fill="#172036"/>
	<path d="M178.44 620.85V597.08H180.34V619.07H192.94V620.85H178.44Z" fill="#172036"/>
	<path d="M202.02 620.85H200.05L209.29 597.08H211.28L220.52 620.85H218.55L215.98 614.12H204.59L202.02 620.85ZM205.24 612.34H215.33L210.28 599.08L205.24 612.34Z" fill="#172036"/>
	<path d="M229.54 620.85V598.86H221.1V597.08H239.9V598.86H231.44V620.85H229.54Z" fill="#172036"/>
	<path d="M247.96 620.85V597.08H263.76V598.86H249.86V607.71H262.82V609.49H249.86V620.85H247.96Z" fill="#172036"/>
	<path d="M281.17 621.18C277.83 621.18 275.07 620.01 272.89 617.67C270.72 615.34 269.63 612.41 269.63 608.88C269.63 605.35 270.72 602.42 272.89 600.09C275.07 597.75 277.83 596.58 281.17 596.58C284.53 596.58 287.28 597.75 289.44 600.09C291.61 602.42 292.69 605.35 292.69 608.88C292.69 612.41 291.61 615.34 289.44 617.67C287.28 620.01 284.53 621.18 281.17 621.18ZM281.17 619.36C283.97 619.36 286.26 618.38 288.06 616.43C289.87 614.48 290.77 611.96 290.77 608.88C290.77 605.79 289.87 603.28 288.06 601.33C286.26 599.38 283.97 598.4 281.17 598.4C278.37 598.4 276.07 599.38 274.26 601.33C272.47 603.28 271.57 605.79 271.57 608.88C271.57 611.96 272.47 614.48 274.26 616.43C276.07 618.38 278.37 619.36 281.17 619.36Z" fill="#172036"/>
	<path d="M302.82 620.85V597.08H311.75C313.77 597.08 315.37 597.63 316.55 598.73C317.72 599.83 318.31 601.29 318.31 603.1C318.31 604.64 317.89 605.93 317.06 606.96C316.23 608 315.12 608.66 313.73 608.96L319.63 620.85H317.47L311.8 609.19H304.72V620.85H302.82ZM304.72 607.43H311.73C313.21 607.43 314.38 607.04 315.23 606.26C316.1 605.48 316.53 604.43 316.53 603.1C316.53 601.77 316.1 600.72 315.23 599.94C314.38 599.16 313.21 598.77 311.73 598.77H304.72V607.43Z" fill="#172036"/>
	<path d="M328.14 620.85V597.08H330.68L338.91 617.79L347.15 597.08H349.71V620.85H347.81V600.06L339.55 620.85H338.27L330.04 600.06V620.85H328.14Z" fill="#172036"/>
	<path d="M361.44 620.85H359.47L368.71 597.08H370.7L379.94 620.85H377.97L375.4 614.12H364.01L361.44 620.85ZM364.66 612.34H374.75L369.7 599.08L364.66 612.34Z" fill="#172036"/>
	<path d="M388.96 620.85V598.86H380.52V597.08H399.32V598.86H390.86V620.85H388.96Z" fill="#172036"/>
	<path d="M407.38 620.85V597.08H409.28V620.85H407.38Z" fill="#172036"/>
	<path d="M428.09 621.18C424.75 621.18 421.99 620.01 419.81 617.67C417.64 615.34 416.55 612.41 416.55 608.88C416.55 605.35 417.64 602.42 419.81 600.09C421.99 597.75 424.75 596.58 428.09 596.58C431.45 596.58 434.2 597.75 436.36 600.09C438.53 602.42 439.61 605.35 439.61 608.88C439.61 612.41 438.53 615.34 436.36 617.67C434.2 620.01 431.45 621.18 428.09 621.18ZM428.09 619.36C430.89 619.36 433.18 618.38 434.98 616.43C436.79 614.48 437.69 611.96 437.69 608.88C437.69 605.79 436.79 603.28 434.98 601.33C433.18 599.38 and 430.89 598.4 428.09 598.4C425.29 598.4 422.99 599.38 421.18 601.33C419.39 603.28 418.49 605.79 418.49 608.88C418.49 611.96 419.39 614.48 421.18 616.43C422.99 618.38 425.29 619.36 428.09 619.36Z" fill="#172036"/>
	<path d="M449.74 620.85V597.08H452.25L466.63 617.62V597.08H468.53V620.85H466.03L451.64 600.28V620.85H449.74Z" fill="#172036"/>
	<path d="M476.51 620.85V597.08H478.41V620.85H476.51Z" fill="#172036"/>
	<path d="M488.13 620.85V597.08H490.65L505.03 617.62V597.08H506.93V620.85H504.42L490.04 600.28V620.85H488.13Z" fill="#172036"/>
	<path d="M526.01 621.18C522.55 621.18 519.7 620.02 517.47 617.69C515.24 615.36 514.13 612.42 514.13 608.88C514.13 605.35 515.24 602.42 517.47 600.09C519.7 597.75 522.55 596.58 526.01 596.58C528.31 596.58 530.41 597.09 532.31 598.09C534.21 599.08 535.61 600.44 536.53 602.16L534.94 603.02C534.2 601.58 533.03 600.43 531.43 599.56C529.84 598.7 528.03 598.26 526.01 598.26C523.12 598.26 520.75 599.23 518.91 601.18C517.08 603.11 516.16 605.68 516.16 608.88C516.16 612.07 517.08 614.64 518.91 616.57C520.75 618.52 523.12 619.49 526.01 619.49C528.55 619.49 530.69 618.76 532.45 617.29C534.22 615.82 535.18 613.84 535.35 611.34H525.58V609.59H537.31V610.37C537.31 613.66 536.28 616.39 534.24 618.56C532.19 620.11 529.45 621.18 526.01 621.18Z" fill="#172036"/>
	<path d="M547.75 620.85V597.08H560.47C562.47 597.08 564.11 597.67 565.36 598.85C566.63 600.03 567.26 601.52 567.26 603.34C567.26 605.65 566.25 607.36 564.22 608.46C566.84 609.45 568.14 611.39 568.14 614.28C568.14 616.16 567.47 617.74 566.14 619.02C564.8 620.24 563.11 620.85 561.06 620.85H547.75ZM549.65 607.87H560.47C561.89 607.87 563.04 607.46 563.93 606.62C564.81 605.79 565.26 604.69 565.26 603.34C565.26 601.99 564.81 600.89 563.93 600.05C563.04 599.21 561.89 598.8 560.47 598.8H549.65V607.87ZM549.65 619.1H561.06C562.54 619.1 563.76 618.64 564.7 617.73C565.65 616.81 566.12 615.67 566.12 614.31C566.12 612.96 565.65 611.83 564.7 610.91C563.76 609.99 562.54 609.53 561.06 609.53H549.65V619.1Z" fill="#172036"/>
	<path d="M576.15 620.85V597.08H577.92V620.85H576.15Z" fill="#172036"/>
	<path d="M587.77 620.85V597.08H589.67V619.07H602.27V620.85H587.77Z" fill="#172036"/>
	<path d="M610.78 620.85V597.08H612.68V620.85H610.78Z" fill="#172036"/>
</svg>
<path d="M0 0 C2.5 1 2.5 1 4 2 C3.67 2.99 3.34 3.98 3 5 C0.03 4.67 -2.94 4.34 -6 4 C-6.13440778 6.42919865 -6.13440778 6.42919865 -5 9 C-3.01164259 10.04006388 -1.06015111 10.68819486 1.08984375 11.32421875 C3 12 3 12 5 14 C5.375 16.9375 5.375 16.9375 5 20 C2.86322259 22.09277056 1.50170993 22.92628906 -1.47265625 23.36328125 C-2.75462891 23.33814453 -2.75462891 23.33814453 -4.0625 23.3125 C-5.34833984 23.30669922 -5.34833984 23.30669922 -6.66015625 23.30078125 C-9 23 -9 23 -12 21 C-11.505 19.515 -11.505 19.515 -11 18 C-10.484375 18.165 -9.96875 18.33 -9.4375 18.5 C-6.26636124 19.15049 -3.22781666 19.0620734 0 19 C0 17.68 0 16.36 0 15 C-0.62648438 14.81824219 -1.25296875 14.63648438 -1.8984375 14.44921875 C-2.71570313 14.19785156 -3.53296875 13.94648437 -4.375 13.6875 C-5.18710937 13.44386719 -5.99921875 13.20023438 -6.8359375 12.94921875 C-9 12 -9 12 -11 9 C-11.31833733 5.94396162 -11.46221217 3.86664781 -10 1.125 C-6.81259664 -0.66791439 -3.52845631 -0.43307009 0 0 Z " fill="#2B3346" transform="translate(824,997)"/>
<path d="M0 0 C0.99 0.66 1.98 1.32 3 2 C2.67 2.99 2.34 3.98 2 5 C-0.97 4.67 -3.94 4.34 -7 4 C-7.33 5.32 -7.66 6.64 -8 8 C-7.30132813 8.26554688 -6.60265625 8.53109375 -5.8828125 8.8046875 C-4.51769531 9.33449219 -4.51769531 9.33449219 -3.125 9.875 C-1.76761719 10.39707031 -1.76761719 10.39707031 -0.3828125 10.9296875 C2 12 2 12 4 14 C3.8125 17.5 3.8125 17.5 3 21 C-0.23914229 23.15942819 -1.24859733 23.27232978 -5 23.25 C-5.86625 23.25515625 -6.7325 23.2603125 -7.625 23.265625 C-10 23 -10 23 -13 21 C-12.505 19.515 -12.505 19.515 -12 18 C-11.484375 18.165 -10.96875 18.33 -10.4375 18.5 C-7.26636124 19.15049 -4.22781666 19.0620734 -1 19 C-1 17.68 -1 16.36 -1 15 C-1.61488281 14.81824219 -2.22976563 14.63648438 -2.86328125 14.44921875 C-3.67152344 14.19785156 -4.47976563 13.94648437 -5.3125 13.6875 C-6.11300781 13.44386719 -6.91351562 13.20023438 -7.73828125 12.94921875 C-10.1377961 11.94216848 -11.38528351 11.02350548 -13 9 C-13.57368682 5.80374487 -13.28087645 4.45184472 -11.5625 1.6875 C-7.8684901 -0.74514066 -4.31625816 -0.68360626 0 0 Z " fill="#2D3649" transform="translate(1005,997)"/>
<path d="M0 0 C7 0 7 0 9.9375 1.5 C12.29738696 4.36046904 12.73661074 6.32366903 12.48046875 10.02734375 C11.62130844 13.55479057 9.93602134 15.00100675 7 17 C4.69 17 2.38 17 0 17 C0 11.39 0 5.78 0 0 Z " fill="#F4F4F5" transform="translate(644,1000)"/>
<path d="M0 0 C2.5625 1.5 2.5625 1.5 4 3 C3.67 3.99 3.34 4.98 3 6 C2.29875 5.67 1.5975 5.34 0.875 5 C-2.34160154 3.88118207 -4.61830655 3.63242462 -8 4 C-10.03882095 4.87129307 -10.03882095 4.87129307 -11 7 C-11.3886759 11.08109691 -11.53330773 13.74515828 -9.9375 17.5 C-6.98335018 19.78708373 -4.63771042 19.31359573 -1 19 C0.67557379 18.71479595 2.34817245 18.40044304 4 18 C4 18.99 4 19.98 4 21 C-0.48151834 23.98767889 -4.75828593 23.95575413 -10 23 C-12.99011155 21.18092073 -14.55880503 19.17295344 -16 16 C-16.92684541 12.06090701 -16.97056422 8.70293136 -14.93359375 5.12890625 C-10.55274198 -0.32427342 -6.64479916 -0.70814911 0 0 Z " fill="#283144" transform="translate(750,997)"/>
<path d="M0 0 C3 1.5 3 1.5 5 3 C4.67 3.99 4.34 4.98 4 6 C3.484375 5.67 2.96875 5.34 2.4375 5 C-0.93481939 3.61648435 -3.39333002 3.54096928 -7 4 C-9.43551204 6.67120675 -9.93780059 8.49203811 -10.375 12.0625 C-9.94480862 15.43233248 -9.6125869 16.80879809 -7 19 C-2.82064283 19.38697752 0.93183621 18.98622152 5 18 C5 18.99 5 19.98 5 21 C0.51848166 23.98767889 -3.75828593 23.95575413 -9 23 C-11.98859329 21.18184438 -13.5660938 19.17549268 -15 16 C-16.00915085 11.33565709 -15.7016628 8.13717764 -13.1875 4.0625 C-8.9770569 0.09265365 -5.66082936 -0.75991678 0 0 Z " fill="#363F51" transform="translate(507,997)"/>
<path d="M0 0 C4.95 0 9.9 0 15 0 C15 0.66 15 1.32 15 2 C11.04 2 7.08 2 3 2 C3 4.31 3 6.62 3 9 C6.63 9 10.26 9 14 9 C14 9.99 14 10.98 14 12 C10.37 12 6.74 12 3 12 C3 14.31 3 16.62 3 19 C7.29 19 11.58 19 16 19 C16 19.99 16 20.98 16 22 C10.72 22 5.44 22 0 22 C0 14.74 0 7.48 0 0 Z " fill="#1B2437" transform="translate(447,998)"/>
<path d="M0 0 C5.28 0 10.56 0 16 0 C16 0.99 16 1.98 16 3 C12.04 3 8.08 3 4 3 C4 5.31 4 7.62 4 10 C7.63 10 11.26 10 15 10 C15 10.99 15 11.98 15 13 C11.37 13 7.74 13 4 13 C4 16.3 4 19.6 4 23 C2.68 23 1.36 23 0 23 C0 15.41 0 7.82 0 0 Z " fill="#2D3445" transform="translate(594,997)"/>
<path d="M0 0 C6.27 0 12.54 0 19 0 C19 1.32 19 2.64 19 4 C16.69 4 14.38 4 12 4 C12 10.27 12 16.54 12 23 C10.68 23 9.36 23 8 23 C8 16.4 8 9.8 8 3 C5.36 3 2.72 3 0 3 C0 2.01 0 1.02 0 0 Z " fill="#363E4E" transform="translate(896,997)"/>
<path d="M0 0 C2.25 0.0625 2.25 0.0625 5 1 C6.67849824 3.2308475 7.75999263 5.47405906 9 8 C9.66 8 10.32 8 11 8 C12.32627485 5.97900975 13.44061281 3.87808717 14.5859375 1.75 C15.05257812 1.1725 15.51921875 0.595 16 0 C17.32 0 18.64 0 20 0 C18.87174765 3.28218864 17.41419853 5.87099024 15.4375 8.6875 C12.46501017 13.25988876 12.12081284 17.64030293 12 23 C10.68 23 9.36 23 8 23 C7.99742187 22.39414062 7.99484375 21.78828125 7.9921875 21.1640625 C7.69211168 14.66241971 5.97785031 10.52452101 2.375 5.12890625 C1 3 1 3 0 0 Z " fill="#2E3749" transform="translate(839,997)"/>
<path d="M0 0 C11.03030303 -0.48484848 11.03030303 -0.48484848 15.25 1.625 C17 4 17 4 17.5 7.0625 C16.96917166 10.18111649 16.4832167 11.13758747 14 13 C14 10.36 14 7.72 14 5 C10.37 4.34 6.74 3.68 3 3 C3 9.6 3 16.2 3 23 C2.01 23 1.02 23 0 23 C0 15.41 0 7.82 0 0 Z " fill="#252D3D" transform="translate(265,997)"/>
<path d="M0 0 C0.66 0 1.32 0 2 0 C0.52307692 4.67692308 0.52307692 4.67692308 -2.125 6.3125 C-3.053125 6.6528125 -3.053125 6.6528125 -4 7 C-2.79618552 4.50638429 -1.54571278 2.31856917 0 0 Z M-5 7 C-5 10.61837191 -5.62674532 11.06315142 -8 13.65625 C-8.96099609 14.71392578 -8.96099609 14.71392578 -9.94140625 15.79296875 C-10.96041016 16.88544922 -10.96041016 16.88544922 -12 18 C-12.64839844 18.69738281 -13.29679688 19.39476562 -13.96484375 20.11328125 C-16.64197698 22.97065711 -19.34101036 25.80692469 -22.0390625 28.64453125 C-28.59329898 35.56570375 -34.81028702 42.75350675 -41 50 C-41.66 49.01 -42.32 48.02 -43 47 C-41.82244141 45.83984375 -41.82244141 45.83984375 -40.62109375 44.65625 C-39.55975756 43.60430616 -38.49856757 42.5522148 -37.4375 41.5 C-36.92380859 40.9946875 -36.41011719 40.489375 -35.88085938 39.96875 C-32.37015382 36.47985007 -29.08732724 32.84857168 -25.84985352 29.10595703 C-22.57663154 25.37957288 -19.15841271 21.78986157 -15.75 18.1875 C-14.69039062 17.06311523 -14.69039062 17.06311523 -13.609375 15.91601562 C-10.77207925 12.90944939 -7.93654133 9.910182 -5 7 Z " fill="#3FBF9F" transform="translate(840,284)"/>
<path d="M0 0 C1.65 0 3.3 0 5 0 C5.8638129 1.45264038 6.71580454 2.9123163 7.5625 4.375 C8.27599609 5.59316406 8.27599609 5.59316406 9.00390625 6.8359375 C9.33261719 7.55007813 9.66132812 8.26421875 10 9 C9.67 9.66 9.34 10.32 9 11 C8.01 11 7.02 11 6 11 C5.67 10.34 5.34 9.68 5 9 C4.67 13.62 4.34 18.24 4 23 C2.68 23 1.36 23 0 23 C0 15.41 0 7.82 0 0 Z " fill="#323949" transform="translate(956,997)"/>
<path d="M0 0 C7.66513975 5.3186684 11.71900851 13.27568984 14.67578125 21.9921875 C16.85151752 35.46602415 14.09027269 47.39872823 6.171875 58.453125 C5.78515625 58.96359375 5.3984375 59.4740625 5 60 C4.34 59.34 3.68 58.68 3 58 C4.485 57.505 4.485 57.505 6 57 C6.33 55.35 6.66 53.7 7 52 C7.66 52 8.32 52 9 52 C9.12375 51.34 9.2475 50.68 9.375 50 C9.83668686 47.78390305 10.39316233 45.58707289 11 43.40625 C12.16330104 38.78268407 12.43933482 34.24993416 12.625 29.5 C12.68300781 28.26636719 12.68300781 28.26636719 12.7421875 27.0078125 C12.83531692 25.0055299 12.91868985 23.00279738 13 21 C12.34 21 11.68 21 11 21 C10.3291288 19.3767313 9.66342971 17.75132422 9 16.125 C8.62875 15.22007812 8.2575 14.31515625 7.875 13.3828125 C7 11 7 11 7 9 C6.34 9 5.68 9 5 9 C3.07847184 6.11770776 1.53612181 3.09872847 0 0 Z " fill="#42BD9D" transform="translate(910,236)"/>
<path d="M0 0 C5 1 5 1 6 2 C6.04080783 3.99958364 6.04254356 6.00045254 6 8 C5.34 8 4.68 8 4 8 C4 12.95 4 17.9 4 23 C2.68 23 1.36 23 0 23 C0 15.41 0 7.82 0 0 Z " fill="#293242" transform="translate(561,997)"/>
<path d="M0 0 C0.99 0 1.98 0 3 0 C3 6.27 3 12.54 3 19 C7.29 19 11.58 19 16 19 C16 19.99 16 20.98 16 22 C10.72 22 5.44 22 0 22 C0 14.74 0 7.48 0 0 Z " fill="#1B2538" transform="translate(326,998)"/>
<path d="M0 0 C0 0.66 0 1.32 0 2 C-0.9744104 2.08302368 -0.9744104 2.08302368 -1.96850586 2.16772461 C-4.95827241 2.42313982 -7.94788568 2.68030926 -10.9375 2.9375 C-11.95908203 3.02451172 -12.98066406 3.11152344 -14.03320312 3.20117188 C-18.65716473 3.60004396 -23.2727571 4.01690407 -27.8828125 4.5546875 C-31.24141194 4.93797501 -34.55367445 5.16322579 -37.9375 5.1875 C-38.85402344 5.20167969 -39.77054687 5.21585937 -40.71484375 5.23046875 C-43 5 -43 5 -45 3 C-40.42196738 0.71098369 -34.2881263 1.27387342 -29.25 0.9375 C-27.99316406 0.84662109 -26.73632812 0.75574219 -25.44140625 0.66210938 C-16.93784898 0.080931 -8.52122111 -0.11116784 0 0 Z " fill="#50CAA9" transform="translate(432,303)"/>
<path d="M0 0 C-0.57363281 0.28617188 -1.14726563 0.57234375 -1.73828125 0.8671875 C-2.48464844 1.24101562 -3.23101563 1.61484375 -4 2 C-5.01126953 2.49886719 -5.01126953 2.49886719 -6.04296875 3.0078125 C-17.16653118 8.80260094 -24.20430626 16.24238325 -28.7734375 27.98828125 C-30.67286959 34.41606955 -30.64514368 41.35111312 -31 48 C-31.66 47.67 -32.32 47.34 -33 47 C-33.47100475 33.00069227 -30.68668575 20.75605656 -20.75 10.125 C-15.72057719 5.55279744 -6.97846135 -2.32615378 0 0 Z " fill="#45C2A3" transform="translate(870,227)"/>
<path d="M0 0 C3.59059983 0.99738884 4.91172765 1.88720756 7.25 4.875 C10.0484892 9.87230214 10.57869351 14.26870846 10 20 C7.82594866 26.65803224 2.35749623 30.98550226 -3.5 34.5 C-7.18989531 35.23797906 -10.29654074 34.62770496 -14 34 C-13.67 33.34 -13.34 32.68 -13 32 C-10.70703125 31.5078125 -10.70703125 31.5078125 -7.8125 31.125 C-1.7070966 30.09555455 2.17725077 28.55184893 5.875 23.375 C7.58291959 18.25124124 8.16281316 13.05523457 6.203125 7.90625 C4.54661362 4.89904473 2.62109776 2.2279331 0 0 Z " fill="#3EB99B" transform="translate(890,253)"/>
<path d="M0 0 C5.28 0 10.56 0 16 0 C16 0.33 16 0.66 16 1 C11.05 1 6.1 1 1 1 C1.33 6.28 1.66 11.56 2 17 C2.66 15.68 3.32 14.36 4 13 C4 15.31 4 17.62 4 20 C7.96 20 11.92 20 16 20 C16 20.99 16 21.98 16 23 C10.72 23 5.44 23 0 23 C0 15.41 0 7.82 0 0 Z " fill="#3A4251" transform="translate(673,997)"/>
<path d="M0 0 C-6.15908932 2.80765694 -12.11077194 5.16476778 -18.75 6.5625 C-23.33157645 7.52905427 -27.07687042 8.77885779 -31.171875 11.015625 C-36.80582854 14.04929229 -41.61145952 15.39928378 -48 15 C-45.47532519 13.31688346 -43.82202213 12.49477786 -41.015625 11.59765625 C-40.24476563 11.34693359 -39.47390625 11.09621094 -38.6796875 10.83789062 C-37.47699219 10.45407227 -37.47699219 10.45407227 -36.25 10.0625 C-30.69381158 8.28178715 -25.36373392 6.31217034 -20 4 C-17.76065671 3.25866489 -15.51054632 2.54891874 -13.25 1.875 C-12.14140625 1.54242188 -11.0328125 1.20984375 -9.890625 0.8671875 C-8.93671875 0.58101562 -7.9828125 0.29484375 -7 0 C-3.86650268 -1.04449911 -3.01031744 -0.93423645 0 0 Z " fill="#50C7A9" transform="translate(467,41)"/>
<path d="M0 0 C2.86471319 2.12807265 5.15030435 4.18113602 7.4375 6.9375 C9.61033753 9.53430582 11.75901007 11.48851957 14.39453125 13.58203125 C16.97363694 15.85992752 19.09937355 18.51601078 21.3203125 21.13671875 C23.33937067 23.37646468 25.63645828 25.13781562 28 27 C28 27.66 28 28.32 28 29 C28.8353125 29.309375 28.8353125 29.309375 29.6875 29.625 C32.87043946 31.5175586 34.71639626 34.11544791 37 37 C37.66 37.66 38.32 38.32 39 39 C35.6625805 38.41622526 34.03050444 37.40267333 31.65600586 35.01245117 C31.025327 34.38477341 30.39464813 33.75709564 29.74485779 33.11039734 C29.07495316 32.4281459 28.40504852 31.74589447 27.71484375 31.04296875 C27.01734512 30.34359695 26.3198465 29.64422516 25.60121155 28.92366028 C24.12767683 27.44340485 22.65774356 25.95955687 21.19116211 24.47241211 C18.94958102 22.19974854 16.69757512 19.93785959 14.44335938 17.67773438 C13.01239709 16.23759867 11.58203828 14.79686303 10.15234375 13.35546875 C9.48041489 12.67929001 8.80848602 12.00311127 8.11619568 11.30644226 C7.48866898 10.66930801 6.86114227 10.03217377 6.21459961 9.37573242 C5.6648497 8.81915451 5.11509979 8.2625766 4.5486908 7.68913269 C0 2.72794719 0 2.72794719 0 0 Z " fill="#107C6B" transform="translate(477,692)"/>
<path d="M0 0 C0.99 0.66 1.98 1.32 3 2 C2.67 2.99 2.34 3.98 2 5 C-0.97 4.67 -3.94 4.34 -7 4 C-7.33 5.32 -7.66 6.64 -8 8 C-7.34 8.33 -6.68 8.66 -6 9 C-6 10.32 -6 11.64 -6 13 C-8.91517292 11.92598892 -10.77810176 11.22189824 -13 9 C-13.49914154 5.83877026 -13.26112354 4.42006831 -11.5625 1.6875 C-7.8684901 -0.74514066 -4.31625816 -0.68360626 0 0 Z " fill="#232C3E" transform="translate(1005,997)"/>
<path d="M0 0 C3 1.5 3 1.5 5 3 C4.67 3.99 4.34 4.98 4 6 C3.484375 5.67 2.96875 5.34 2.4375 5 C-0.93481939 3.61648435 -3.39333002 3.54096928 -7 4 C-8.8624438 6.40858714 -8.8624438 6.40858714 -10 9 C-10.66 9 -11.32 9 -12 9 C-12 10.65 -12 12.3 -12 14 C-12.66 14 -13.32 14 -14 14 C-14.36191797 10.92369721 -14.48225134 8.06793935 -14 5 C-9.76130583 -0.19240036 -6.53679869 -0.83006967 0 0 Z " fill="#333C4E" transform="translate(507,997)"/>
<path d="M0 0 C-1.98 0.99 -1.98 0.99 -4 2 C-4 1.34 -4 0.68 -4 0 C-4.886875 0.144375 -5.77375 0.28875 -6.6875 0.4375 C-10.26348084 0.96081427 -13.83187798 1.20271531 -17.4375 1.4375 C-21.33952105 1.70722496 -24.9253103 2.11651169 -28.6875 3.1875 C-30.3271875 3.5896875 -30.3271875 3.5896875 -32 4 C-32.66 3.34 -33.32 2.68 -34 2 C-23.13380366 -2.60990148 -11.27823985 -4.3646439 0 0 Z " fill="#45B299" transform="translate(438,472)"/>
<path d="M0 0 C-1.61023694 4.09878494 -4.5779279 6.76238121 -7.6875 9.75 C-11.24663142 13.22791634 -14.71213286 16.70377142 -17.9375 20.5 C-20.38663702 23.38133767 -22.92666836 25.76484972 -26 28 C-26 25 -26 25 -24.49609375 23.23828125 C-23.81675781 22.60277344 -23.13742187 21.96726562 -22.4375 21.3125 C-19.67310334 18.65479935 -17.04951027 15.98152614 -14.5625 13.0625 C-3.29187376 0 -3.29187376 0 0 0 Z " fill="#2CAC8F" transform="translate(744,391)"/>
<path d="M0 0 C0.66 0.33 1.32 0.66 2 1 C-0.20478227 3.99850389 -2.41222053 6.37148908 -5.34375 8.625 C-9.46214736 12.10777256 -11.60068073 16.07944046 -13.9375 20.875 C-14.33517578 21.65875 -14.73285156 22.4425 -15.14257812 23.25 C-16.10904648 25.15964831 -17.05655192 27.07887443 -18 29 C-18.66 29 -19.32 29 -20 29 C-16.52972268 16.54782843 -9.95752655 8.1142822 0 0 Z " fill="#2FA890" transform="translate(397,478)"/>
<path d="M0 0 C1.32 0 2.64 0 4 0 C4 7.59 4 15.18 4 23 C3.01 23 2.02 23 1 23 C1 17.39 1 11.78 1 6 C0.34 6 -0.32 6 -1 6 C-0.67 4.02 -0.34 2.04 0 0 Z " fill="#1E273B" transform="translate(975,997)"/>
<path d="M0 0 C0.66 1.32 1.32 2.64 2 4 C1.34 4 0.68 4 0 4 C0.33 4.99 0.66 5.98 1 7 C0.36079057 9.00894394 -0.31039038 11.00779443 -1 13 C-1.35179197 15.3306218 -1.68330179 17.66435067 -2 20 C-2.47851282 22.31679956 -2.99902392 24.62077271 -3.53125 26.92578125 C-3.89729729 28.54554053 -4.20933868 30.17753005 -4.5 31.8125 C-5.02591605 34.11338274 -5.85709569 35.94277224 -7 38 C-8.49552252 34.07285483 -7.51082656 30.6243176 -6.6015625 26.6796875 C-6.44714691 25.9798172 -6.29273132 25.2799469 -6.13363647 24.55886841 C-5.80648268 23.08372352 -5.47505764 21.60952023 -5.13964844 20.13623047 C-4.62566262 17.8779114 -4.12419941 15.61709757 -3.625 13.35546875 C-3.30541128 11.92171348 -2.98512273 10.48811398 -2.6640625 9.0546875 C-2.51297028 8.37759735 -2.36187805 7.7005072 -2.20620728 7.00289917 C-1.11763914 2.23527828 -1.11763914 2.23527828 0 0 Z " fill="#54BFA7" transform="translate(50,476)"/>
<path d="M0 0 C0.99 0 1.98 0 3 0 C3 7.59 3 15.18 3 23 C2.01 23 1.02 23 0 23 C-0.66 21.02 -1.32 19.04 -2 17 C-1.34 17 -0.68 17 0 17 C0 11.39 0 5.78 0 0 Z " fill="#182134" transform="translate(718,997)"/>
<path d="M0 0 C0.66 0 1.32 0 2 0 C2.28875 1.11375 2.5775 2.2275 2.875 3.375 C3.69241329 7.00291092 3.69241329 7.00291092 6 9 C8.32275177 9.40047444 10.65739357 9.7397104 13 10 C13 10.66 13 11.32 13 12 C13.66 12.33 14.32 12.66 15 13 C5.34609867 13.85854854 5.34609867 13.85854854 1.375 10.9375 C-1 8 -1 8 -1.4375 4.25 C-1 1 -1 1 0 0 Z " fill="#1F283A" transform="translate(526,1007)"/>
<path d="M0 0 C3.375 -0.125 3.375 -0.125 7 0 C9 2 9 2 9.1875 4.5625 C9 7 9 7 8 8 C5.32941149 8.14115161 2.67567762 8.04247107 0 8 C0 5.36 0 2.72 0 0 Z " fill="#EEEEF0" transform="translate(269,1000)"/>
<path d="M0 0 C0.99 0 1.98 0 3 0 C3 7.26 3 14.52 3 22 C2.01 22 1.02 22 0 22 C0 14.74 0 7.48 0 0 Z " fill="#101A2E" transform="translate(623,998)"/>
<path d="M0 0 C0 4.34233402 -2.65426865 6.26687974 -5.5 9.25 C-6.31778931 10.11854614 -6.31778931 10.11854614 -7.15209961 11.00463867 C-16.11077934 20.42280559 -16.11077934 20.42280559 -20 23 C-20.99 23 -21.98 23 -23 23 C-17.03225806 15.74193548 -17.03225806 15.74193548 -15 14 C-14.34 14 -13.68 14 -13 14 C-12.67 13.01 -12.34 12.02 -12 11 C-10.546875 9.5703125 -10.546875 9.5703125 -8.75 8.125 C-5.64346715 5.56291105 -2.80355296 2.88850912 0 0 Z " fill="#1A8171" transform="translate(758,708)"/>
<path d="M0 0 C-2.67054329 4.00581494 -5.76389492 4.37713837 -10.1875 5.5625 C-10.93064453 5.77068359 -11.67378906 5.97886719 -12.43945312 6.19335938 C-13.91632859 6.60626321 -15.39460077 7.01420583 -16.87426758 7.41699219 C-18.86678731 7.96346481 -20.85171428 8.53741198 -22.8359375 9.11328125 C-25.88322305 9.96727362 -28.87105295 10.54210531 -32 11 C-31 9 -31 9 -28.93041992 8.16210938 C-28.03943604 7.89205078 -27.14845215 7.62199219 -26.23046875 7.34375 C-25.25916016 7.04339844 -24.28785156 6.74304687 -23.28710938 6.43359375 C-22.26423828 6.12550781 -21.24136719 5.81742188 -20.1875 5.5 C-18.18006885 4.88843079 -16.17352047 4.27395463 -14.16796875 3.65625 C-12.82641724 3.25116211 -12.82641724 3.25116211 -11.45776367 2.83789062 C-9.00480455 2.06659678 -9.00480455 2.06659678 -6.84887695 0.90429688 C-4.4820012 -0.25335634 -2.59917946 -0.14439886 0 0 Z " fill="#2A9F87" transform="translate(819,1177)"/>
<path d="M0 0 C0.33 1.32 0.66 2.64 1 4 C-0.0725 3.9175 -1.145 3.835 -2.25 3.75 C-5.99267039 3.63908018 -5.99267039 3.63908018 -8.25 5.8125 C-8.8275 6.534375 -9.405 7.25625 -10 8 C-10.556875 8.474375 -11.11375 8.94875 -11.6875 9.4375 C-13.42526045 11.50626244 -13.64345878 13.36159497 -14 16 C-14.33 16 -14.66 16 -15 16 C-15.31464883 10.75585282 -14.83856733 7.46060581 -12 3 C-8.50184186 -0.88684237 -4.90472288 -0.24523614 0 0 Z " fill="#2C3445" transform="translate(539,997)"/>
<path d="M0 0 C0.33 0.99 0.66 1.98 1 3 C0.25556641 3.72703125 0.25556641 3.72703125 -0.50390625 4.46875 C-3.94142678 7.86061086 -7.29379069 11.26983914 -10.4375 14.9375 C-14.38435854 19.53303205 -18.67483483 23.76310351 -23 28 C-23.66 27.67 -24.32 27.34 -25 27 C-24.43152344 26.443125 -23.86304688 25.88625 -23.27734375 25.3125 C-18.89896637 20.98528897 -14.70248746 16.59311473 -10.69921875 11.91796875 C-8.41097389 9.33514524 -5.96462824 6.93617503 -3.48046875 4.54296875 C-1.78164495 2.86292628 -1.78164495 2.86292628 0 0 Z " fill="#2EAC91" transform="translate(820,414)"/>
<path d="M0 0 C0.680625 0.165 1.36125 0.33 2.0625 0.5 C7.17740446 1.37062204 11.96171281 1.22140296 17 0 C17 0.99 17 1.98 17 3 C13.66602694 5.22264871 12.40485109 5.29675463 8.5 5.3125 C7.5409375 5.32925781 6.581875 5.34601562 5.59375 5.36328125 C3 5 3 5 1.15625 3.60546875 C0 2 0 2 0 0 Z " fill="#20283B" transform="translate(737,1015)"/>
<path d="M0 0 C0.68707555 2.49064888 1 4.37886292 1 7 C0.34 7 -0.32 7 -1 7 C-0.67 7.99 -0.34 8.98 0 10 C-0.61297089 12.96576517 -1.72584758 15.77804419 -2.75 18.625 C-3.01554687 19.41390625 -3.28109375 20.2028125 -3.5546875 21.015625 C-3.82023437 21.76585937 -4.08578125 22.51609375 -4.359375 23.2890625 C-4.60139648 23.97693848 -4.84341797 24.66481445 -5.09277344 25.37353516 C-6 27 -6 27 -9 28 C-6.64500307 18.43540722 -3.35051831 9.24916544 0 0 Z " fill="#4FBEA5" transform="translate(70,410)"/>
<path d="M0 0 C2.86515081 0.26466936 5.72975948 0.44396154 8.6015625 0.62109375 C9.39304687 0.74613281 10.18453125 0.87117188 11 1 C11.495 1.99 11.495 1.99 12 3 C-1.53 2.34 -15.06 1.68 -29 1 C-29 0.67 -29 0.34 -29 0 C-5.77251185 -1.92417062 -5.77251185 -1.92417062 0 0 Z " fill="#45C1A1" transform="translate(676,41)"/>
<path d="M0 0 C2.5 1 2.5 1 4 2 C4 2.99 4 3.98 4 5 C0.7 4.67 -2.6 4.34 -6 4 C-6.99 5.485 -6.99 5.485 -8 7 C-8.33 6.01 -8.66 5.02 -9 4 C-9.33 5.65 -9.66 7.3 -10 9 C-10.33 9 -10.66 9 -11 9 C-11.35555556 3.66666667 -11.35555556 3.66666667 -10 1.125 C-6.81259664 -0.66791439 -3.52845631 -0.43307009 0 0 Z " fill="#394152" transform="translate(428,997)"/>
<path d="M0 0 C0.33 0.99 0.66 1.98 1 3 C-5.27 9.27 -11.54 15.54 -18 22 C-18.66 21.67 -19.32 21.34 -20 21 C-19.57589844 20.5875 -19.15179687 20.175 -18.71484375 19.75 C-14.85941398 15.95388454 -11.24184296 12.03168086 -7.7109375 7.93359375 C-5.25809972 5.16155106 -2.64889006 2.58428299 0 0 Z " fill="#34B596" transform="translate(865,366)"/>
<path d="M0 0 C2.1875 0.3125 2.1875 0.3125 4 1 C0.70278487 3.06506167 -2.63819814 5.04213244 -6 7 C-6.66 7.42539062 -7.32 7.85078125 -8 8.2890625 C-15.81820724 12.67104156 -25.33851231 11.31720606 -34 11 C-34 10.67 -34 10.34 -34 10 C-28.06 10 -22.12 10 -16 10 C-16 9.34 -16 8.68 -16 8 C-15.09636719 7.67386719 -14.19273437 7.34773438 -13.26171875 7.01171875 C-11.49248047 6.35623047 -11.49248047 6.35623047 -9.6875 5.6875 C-8.51574219 5.25824219 -7.34398437 4.82898438 -6.13671875 4.38671875 C-3.03030776 3.24957311 -3.03030776 3.24957311 -1.33203125 1.26953125 C-0.89246094 0.85058594 -0.45289063 0.43164062 0 0 Z " fill="#42B89D" transform="translate(906,301)"/>
<path d="M0 0 C-0.33 0.99 -0.66 1.98 -1 3 C-2.01707031 3.18175781 -2.01707031 3.18175781 -3.0546875 3.3671875 C-4.45074219 3.61855469 -4.45074219 3.61855469 -5.875 3.875 C-6.8753125 4.05417969 -7.875625 4.23335938 -8.90625 4.41796875 C-12.52891873 5.09950617 -16.12062239 5.89593062 -19.7109375 6.73046875 C-22.3514017 7.04137665 -24.43336223 6.63939209 -27 6 C-27 5.67 -27 5.34 -27 5 C-23.25149397 4.15984843 -19.50097168 3.32906781 -15.75 2.5 C-14.68652344 2.26152344 -13.62304688 2.02304687 -12.52734375 1.77734375 C-11.50253906 1.55175781 -10.47773438 1.32617188 -9.421875 1.09375 C-8.47924805 0.88427734 -7.53662109 0.67480469 -6.56542969 0.45898438 C-4 0 -4 0 0 0 Z " fill="#37C19C" transform="translate(489,292)"/>
<path d="M0 0 C0.33 0 0.66 0 1 0 C1 2.31 1 4.62 1 7 C5.29 7 9.58 7 14 7 C14 7.99 14 8.98 14 10 C9.05 10 4.1 10 -1 10 C-0.67 6.7 -0.34 3.4 0 0 Z " fill="#282F41" transform="translate(770,1010)"/>
<path d="M0 0 C3.63 0 7.26 0 11 0 C11 0.66 11 1.32 11 2 C8.03 2 5.06 2 2 2 C2 6.95 2 11.9 2 17 C1.34 17 0.68 17 0 17 C0 11.39 0 5.78 0 0 Z " fill="#0D162B" transform="translate(641,998)"/>
<path d="M0 0 C0.33 0.99 0.66 1.98 1 3 C-1.58229399 5.75097755 -4.16601831 8.50060772 -6.75 11.25 C-7.47960937 12.02730469 -8.20921875 12.80460937 -8.9609375 13.60546875 C-9.66992188 14.35957031 -10.37890625 15.11367188 -11.109375 15.890625 C-11.75874023 16.58188477 -12.40810547 17.27314453 -13.07714844 17.98535156 C-15.02109978 20.02210709 -17.00140648 22.01695974 -19 24 C-19.66 23.67 -20.32 23.34 -21 23 C-20.25556641 22.27296875 -20.25556641 22.27296875 -19.49609375 21.53125 C-14.76729079 16.86525846 -10.30986143 12.05328741 -6 7 C-5.41605469 6.32066406 -4.83210937 5.64132812 -4.23046875 4.94140625 C-2.81744048 3.296734 -1.40829078 1.64873067 0 0 Z " fill="#32B094" transform="translate(842,390)"/>
<path d="M0 0 C4.95 0 9.9 0 15 0 C15 0.66 15 1.32 15 2 C11.04 2 7.08 2 3 2 C2.16055822 5.35776713 1.72311831 8.32258026 1.4375 11.75 C1.35371094 12.73484375 1.26992188 13.7196875 1.18359375 14.734375 C1.12300781 15.48203125 1.06242187 16.2296875 1 17 C0.67 17 0.34 17 0 17 C0 11.39 0 5.78 0 0 Z " fill="#11192C" transform="translate(447,998)"/>
<path d="M0 0 C2.24035923 3.99135672 2.04815085 6.67997082 1.625 11.25 C1.51414062 12.51328125 1.40328125 13.7765625 1.2890625 15.078125 C1.14597656 16.52445313 1.14597656 16.52445313 1 18 C0.67 18 0.34 18 0 18 C-0.66 21.96 -1.32 25.92 -2 30 C-2.33 30 -2.66 30 -3 30 C-3.18956939 23.36507139 -2.45561368 17.06015881 -1.5 10.5 C-1.35691406 9.48679687 -1.21382812 8.47359375 -1.06640625 7.4296875 C-0.71584418 4.95238218 -0.36027153 2.47590863 0 0 Z " fill="#49BA9F" transform="translate(36,549)"/>
<path d="M0 0 C3.63 0.66 7.26 1.32 11 2 C11 2.66 11 3.32 11 4 C11.66 4.33 12.32 4.66 13 5 C9.93570224 6.53214888 7.3834358 6.22938548 4 6 C1.0625 4.5 1.0625 4.5 -1 3 C-0.67 2.01 -0.34 1.02 0 0 Z " fill="#394151" transform="translate(417,1015)"/>
<path d="M0 0 C3.17896475 0.06935923 5.42117618 0.44745079 8.125 2.25 C7.795 3.24 7.465 4.23 7.125 5.25 C4.155 4.92 1.185 4.59 -1.875 4.25 C-2.865 5.735 -2.865 5.735 -3.875 7.25 C-4.535 5.6 -5.195 3.95 -5.875 2.25 C-3.875 0.25 -3.875 0.25 0 0 Z " fill="#333B4C" transform="translate(819.875,996.75)"/>
<path d="M0 0 C0.33 0.99 0.66 1.98 1 3 C-0.72461321 4.92093521 -2.45442609 6.836722 -4.1875 8.75 C-4.67025391 9.28882813 -5.15300781 9.82765625 -5.65039062 10.3828125 C-8.56162205 13.58712091 -11.52706501 16.3841879 -15 19 C-15 16 -15 16 -13.83837891 14.51367188 C-13.30647949 14.00384766 -12.77458008 13.49402344 -12.2265625 12.96875 C-11.6490625 12.40542969 -11.0715625 11.84210937 -10.4765625 11.26171875 C-9.56003906 10.38966797 -9.56003906 10.38966797 -8.625 9.5 C-7.42750837 8.346007 -6.23211263 7.18983423 -5.0390625 6.03125 C-4.50490723 5.52142578 -3.97075195 5.01160156 -3.42041016 4.48632812 C-1.77489288 2.85065968 -1.77489288 2.85065968 0 0 Z " fill="#2B9B86" transform="translate(630,510)"/>
<path d="M0 0 C8.77342419 -0.6132879 8.77342419 -0.6132879 13.125 1.5625 C15.66230899 4.86100169 15.52637895 6.93936239 15 11 C14.34 11.66 13.68 12.32 13 13 C12.731875 11.906875 12.46375 10.81375 12.1875 9.6875 C11.08641352 6.26833673 10.57525074 5.22408019 8 3 C8 2.34 8 1.68 8 1 C5.36 1 2.72 1 0 1 C0 0.67 0 0.34 0 0 Z " fill="#171F33" transform="translate(532,998)"/>
<path d="M0 0 C2.31 0 4.62 0 7 0 C7.103125 0.639375 7.20625 1.27875 7.3125 1.9375 C7.539375 2.618125 7.76625 3.29875 8 4 C8.99 4.33 9.98 4.66 11 5 C12.1875 8.0625 12.1875 8.0625 13 11 C11.68 11 10.36 11 9 11 C8.68546875 10.37351562 8.3709375 9.74703125 8.046875 9.1015625 C7.61890625 8.28429687 7.1909375 7.46703125 6.75 6.625 C6.33234375 5.81289063 5.9146875 5.00078125 5.484375 4.1640625 C3.85732025 1.79198795 2.64613361 1.02905196 0 0 Z " fill="#131B2C" transform="translate(269,1009)"/>
<path d="M0 0 C0.66 0 1.32 0 2 0 C2.598125 0.94875 3.19625 1.8975 3.8125 2.875 C6.10464788 6.14949697 7.24180292 6.95605637 11 8 C11 8.66 11 9.32 11 10 C9.54054712 9.91291331 8.08234132 9.80473093 6.625 9.6875 C5.81289063 9.62949219 5.00078125 9.57148437 4.1640625 9.51171875 C2 9 2 9 0 6 C-0.125 2.8125 -0.125 2.8125 0 0 Z " fill="#131C31" transform="translate(813,1000)"/>
<path d="M0 0 C2.83374881 3.20336822 3.5205537 5.78087253 4 10 C1.69 10 -0.62 10 -3 10 C-2.49287967 6.28111761 -1.88391785 3.26545761 0 0 Z " fill="#DBDCE0" transform="translate(393,1002)"/>
<path d="M0 0 C2.70502403 0.87730509 4.68400006 1.71668971 6.8125 3.625 C8.5799191 7.15983819 8.19629067 10.07418669 8 14 C7.67 14 7.34 14 7 14 C6.67 12.02 6.34 10.04 6 8 C5.67 9.65 5.34 11.3 5 13 C4.67 13 4.34 13 4 13 C3.87625 11.39125 3.87625 11.39125 3.75 9.75 C2.94523098 5.7261549 2.12270126 4.51830747 -1 2 C-0.67 1.34 -0.34 0.68 0 0 Z " fill="#2D3546" transform="translate(652,998)"/>
<path d="M0 0 C0.66 0.33 1.32 0.66 2 1 C1.566875 1.99 1.566875 1.99 1.125 3 C-0.10400629 6.08089378 -0.10400629 6.08089378 -0.875 9.75 C-1.98427974 14.43760146 -3.93304548 18.66541576 -6 23 C-7.07287883 19.7617321 -6.92440102 17.91372235 -5.8203125 14.70703125 C-5.55089844 13.91232422 -5.28148437 13.11761719 -5.00390625 12.29882812 C-4.71386719 11.47833984 -4.42382812 10.65785156 -4.125 9.8125 C-3.70154297 8.56436523 -3.70154297 8.56436523 -3.26953125 7.29101562 C-1.16137422 1.16137422 -1.16137422 1.16137422 0 0 Z " fill="#239E87" transform="translate(1173,807)"/>
<path d="M0 0 C3.56764821 0.57619097 5.25159497 1.86969484 7.75 4.4375 C8.67039062 5.36369141 8.67039062 5.36369141 9.609375 6.30859375 C11 8 11 8 11 10 C11.66 10 12.32 10 13 10 C14.38232443 11.62626404 15.71937515 13.2925002 17 15 C16.67 15.66 16.34 16.32 16 17 C13.32932797 14.3581833 10.66414667 11.7108958 8 9.0625 C7.236875 8.30775391 6.47375 7.55300781 5.6875 6.77539062 C4.965625 6.05673828 4.24375 5.33808594 3.5 4.59765625 C2.8296875 3.93258057 2.159375 3.26750488 1.46875 2.58227539 C0 1 0 1 0 0 Z " fill="#21957E" transform="translate(540,524)"/>
<path d="M0 0 C3 1 3 1 4.1875 3.375 C5 6 5 6 5 9 C3.0625 8.6875 3.0625 8.6875 1 8 C0.67 7.01 0.34 6.02 0 5 C-3.63 4.67 -7.26 4.34 -11 4 C-11 3.67 -11 3.34 -11 3 C-7.37 3 -3.74 3 0 3 C0 2.01 0 1.02 0 0 Z " fill="#2E3647" transform="translate(399,1011)"/>
<path d="M0 0 C0.66 0 1.32 0 2 0 C2.33 0.66 2.66 1.32 3 2 C3.825 2.495 4.65 2.99 5.5 3.5 C8 5 8 5 9 7 C10.65051288 8.11634152 10.65051288 8.11634152 12.5625 9.125 C13.696875 9.74375 14.83125 10.3625 16 11 C16 11.66 16 12.32 16 13 C12.15326245 12.40062461 9.87362826 10.59982931 6.875 8.1875 C5.57175781 7.15689453 5.57175781 7.15689453 4.2421875 6.10546875 C2.12787917 4.12008166 1.06509119 2.66272798 0 0 Z " fill="#1B7D6F" transform="translate(524,738)"/>
<path d="M0 0 C1.32 0 2.64 0 4 0 C4.66 2.31 5.32 4.62 6 7 C3.03 7 0.06 7 -3 7 C-1.125 1.125 -1.125 1.125 0 0 Z " fill="#2B3445" transform="translate(392,997)"/>
<path d="M0 0 C-6.35161868 3.47826737 -11.69505228 4.13576477 -18.875 4.0625 C-20.02742187 4.05347656 -21.17984375 4.04445313 -22.3671875 4.03515625 C-23.23601563 4.02355469 -24.10484375 4.01195312 -25 4 C-25 3.67 -25 3.34 -25 3 C-24.28714844 2.95101562 -23.57429687 2.90203125 -22.83984375 2.8515625 C-17.28627148 2.41804003 -12.28508552 1.76169517 -7 0 C-3.86650268 -1.04449911 -3.01031744 -0.93423645 0 0 Z " fill="#464D5B" transform="translate(558,954)"/>
<path d="M0 0 C0.99 0 1.98 0 3 0 C2.855625 1.2375 2.71125 2.475 2.5625 3.75 C1.92166738 9.49002931 1.4578378 15.24293318 1 21 C-1 19 -1 19 -1.23046875 16.6796875 C-1.14403514 11.03793011 -0.84244468 5.58119598 0 0 Z " fill="#2BA589" transform="translate(376,508)"/>
<path d="M0 0 C0.66 0.33 1.32 0.66 2 1 C2 2.98 2 4.96 2 7 C1.34 7 0.68 7 0 7 C0 11.95 0 16.9 0 22 C-0.33 22 -0.66 22 -1 22 C-1.33 15.07 -1.66 8.14 -2 1 C-1.34 0.67 -0.68 0.34 0 0 Z " fill="#3E4555" transform="translate(565,998)"/>
<path d="M0 0 C0.66 0.66 1.32 1.32 2 2 C-1.63 5.96 -5.26 9.92 -9 14 C-9.99 13.67 -10.98 13.34 -12 13 C-11.30132813 12.31292969 -10.60265625 11.62585938 -9.8828125 10.91796875 C-8.97273437 10.01691406 -8.06265625 9.11585938 -7.125 8.1875 C-6.22007812 7.29417969 -5.31515625 6.40085937 -4.3828125 5.48046875 C-1.90168486 3.04361667 -1.90168486 3.04361667 0 0 Z " fill="#30A78F" transform="translate(780,457)"/>
<path d="M0 0 C3.15234375 -0.36328125 3.15234375 -0.36328125 6.9375 -0.3125 C8.18402344 -0.30863281 9.43054688 -0.30476562 10.71484375 -0.30078125 C14 0 14 0 17 2 C13.23699626 3.25433458 9.72789091 3.10695422 5.8125 3.0625 C5.06291016 3.05798828 4.31332031 3.05347656 3.54101562 3.04882812 C1.69397617 3.03706354 -0.15302213 3.01912865 -2 3 C-1.34 2.01 -0.68 1.02 0 0 Z " fill="#2A3443" transform="translate(288,935)"/>
<path d="M0 0 C0 4.11227078 -2.15887221 5.82719189 -4.8125 8.6875 C-5.26431641 9.19861328 -5.71613281 9.70972656 -6.18164062 10.23632812 C-7.38774511 11.55511974 -8.68972806 12.7846454 -10 14 C-10.99 14 -11.98 14 -13 14 C-11.57390841 10.63797061 -9.85651485 8.76324421 -7.0625 6.4375 C-4.60267986 4.3730902 -2.23631078 2.30641457 0 0 Z " fill="#1E957C" transform="translate(571,529)"/>
<path d="M0 0 C0.66 0.99 1.32 1.98 2 3 C-1.3 6.3 -4.6 9.6 -8 13 C-8.66 12.34 -9.32 11.68 -10 11 C-9.52949219 10.54109375 -9.05898438 10.0821875 -8.57421875 9.609375 C-3.96631602 5.08450705 -3.96631602 5.08450705 0 0 Z " fill="#289E88" transform="translate(730,511)"/>
<path d="M0 0 C0.8971875 0.309375 0.8971875 0.309375 1.8125 0.625 C0.25 2.625 0.25 2.625 -2.1875 4.625 C-6.58953429 5.08837203 -8.4669164 5.10538907 -12.1875 2.625 C-11.094375 2.50125 -10.00125 2.3775 -8.875 2.25 C-5.43062929 1.66620835 -3.26752601 -0.56014732 0 0 Z " fill="#161E32" transform="translate(511.1875,1015.375)"/>
<path d="M0 0 C6.75 0.75 6.75 0.75 9 3 C8.67 4.32 8.34 5.64 8 7 C5.03 5.35 2.06 3.7 -1 2 C-0.67 1.34 -0.34 0.68 0 0 Z " fill="#141C32" transform="translate(999,1007)"/>
<path d="M0 0 C1.46726798 3.81489674 0.43336419 6.29011622 -1 10 C-1.66 10 -2.32 10 -3 10 C-3.33 10.66 -3.66 11.32 -4 12 C-4.66 12 -5.32 12 -6 12 C-5.57742724 10.5164999 -5.13643678 9.03823576 -4.6875 7.5625 C-4.32205078 6.32693359 -4.32205078 6.32693359 -3.94921875 5.06640625 C-3.63597656 4.38449219 -3.32273437 3.70257812 -3 3 C-2.01 2.67 -1.02 2.34 0 2 C0 1.34 0 0.68 0 0 Z " fill="#202A3A" transform="translate(391,1002)"/>
<path d="M0 0 C2 1.125 2 1.125 4 3 C4.4375 6 4.4375 6 4 9 C2.5 10.875 2.5 10.875 1 12 C1 9.36 1 6.72 1 4 C0.01 3.67 -0.98 3.34 -2 3 C-1.34 2.01 -0.68 1.02 0 0 Z " fill="#1A2236" transform="translate(278,998)"/>
<path d="M0 0 C5.28 0.66 10.56 1.32 16 2 C16 2.66 16 3.32 16 4 C14.06257659 4.02703381 12.12504521 4.04641125 10.1875 4.0625 C9.10855469 4.07410156 8.02960937 4.08570313 6.91796875 4.09765625 C4 4 4 4 1 3 C0.67 2.01 0.34 1.02 0 0 Z " fill="#2E9681" transform="translate(873,964)"/>
<path d="M0 0 C-0.99 0 -1.98 0 -3 0 C-3.33 0.66 -3.66 1.32 -4 2 C-5.8125 2.5625 -5.8125 2.5625 -8 3 C-8.91072266 3.27457031 -8.91072266 3.27457031 -9.83984375 3.5546875 C-12.31456378 4.06484678 -14.25123643 3.89321871 -16.75 3.5625 C-17.94882812 3.40974609 -17.94882812 3.40974609 -19.171875 3.25390625 C-19.77515625 3.17011719 -20.3784375 3.08632813 -21 3 C-21 2.67 -21 2.34 -21 2 C-18.25162151 1.46892686 -15.50187625 0.94984119 -12.75 0.4375 C-11.97269531 0.28603516 -11.19539063 0.13457031 -10.39453125 -0.02148438 C-9.64042969 -0.16005859 -8.88632812 -0.29863281 -8.109375 -0.44140625 C-7.07248535 -0.63778687 -7.07248535 -0.63778687 -6.01464844 -0.83813477 C-3.78712058 -1.01710362 -2.12493038 -0.65206197 0 0 Z " fill="#54CBAA" transform="translate(461,299)"/>
<path d="M0 0 C-5.28 1.32 -10.56 2.64 -16 4 C-16.33 3.34 -16.66 2.68 -17 2 C-15.41701974 1.5196682 -13.83360022 1.04078388 -12.25 0.5625 C-11.36828125 0.29566406 -10.4865625 0.02882813 -9.578125 -0.24609375 C-8.30195313 -0.61927734 -8.30195313 -0.61927734 -7 -1 C-6.29359375 -1.23847656 -5.5871875 -1.47695313 -4.859375 -1.72265625 C-3 -2 -3 -2 0 0 Z " fill="#41BE9F" transform="translate(474,64)"/>
<path d="M0 0 C0 0.33 0 0.66 0 1 C-2.20751848 1.33868777 -4.41605911 1.67071689 -6.625 2 C-7.85476563 2.185625 -9.08453125 2.37125 -10.3515625 2.5625 C-13.6166027 2.95402516 -16.71712451 3.08080924 -20 3 C-18.16042081 0.51115756 -16.98916408 -0.00265369 -13.9375 -0.75 C-9.18705722 -1.05161541 -4.70830115 -0.61577379 0 0 Z " fill="#47C3A5" transform="translate(569,44)"/>
<path d="M0 0 C-12.48519362 5.55580866 -12.48519362 5.55580866 -19 6 C-15.9990408 3.53694858 -13.13811489 2.08930603 -9.5 0.75 C-8.5615625 0.39421875 -7.623125 0.0384375 -6.65625 -0.328125 C-3.92325523 -1.01941191 -2.60719656 -0.95925156 0 0 Z " fill="#45C4A3" transform="translate(467,41)"/>
<path d="M0 0 C3.3 0.66 6.6 1.32 10 2 C10 2.33 10 2.66 10 3 C8.35 3 6.7 3 5 3 C5 3.66 5 4.32 5 5 C6.98 5 8.96 5 11 5 C11 5.33 11 5.66 11 6 C5.97745369 6.2954439 3.10457614 5.98514628 -1 3 C-0.67 2.01 -0.34 1.02 0 0 Z " fill="#434B5B" transform="translate(870,1015)"/>
<path d="M0 0 C0.33 0 0.66 0 1 0 C1.10824843 1.6026782 1.18570645 3.20745748 1.25 4.8125 C1.29640625 5.70582031 1.3428125 6.59914063 1.390625 7.51953125 C1 10 1 10 -1.015625 11.82421875 C-1.67046875 12.21222656 -2.3253125 12.60023438 -3 13 C-4.39943663 10.20112673 -3.54753576 8.87861172 -2.625 5.9375 C-2.34914063 5.03902344 -2.07328125 4.14054688 -1.7890625 3.21484375 C-1 1 -1 1 0 0 Z " fill="#111C31" transform="translate(658,1005)"/>
<path d="M0 0 C0.99 0 1.98 0 3 0 C3 3.63 3 7.26 3 11 C2.01 11 1.02 11 0 11 C0 7.37 0 3.74 0 0 Z " fill="#151F31" transform="translate(848,1009)"/>
<path d="M0 0 C0.3403125 0.86625 0.3403125 0.86625 0.6875 1.75 C2.33038023 4.5663661 4.39533227 6.08077114 7 8 C1.25 9.125 1.25 9.125 -1 8 C-1.04241723 5.66705225 -1.04092937 3.33297433 -1 1 C-0.67 0.67 -0.34 0.34 0 0 Z " fill="#171F31" transform="translate(419,1000)"/>
<path d="M0 0 C0.66 0.99 1.32 1.98 2 3 C1.24088921 4.48521677 0.46728766 5.96303425 -0.3125 7.4375 C-0.95638672 8.67306641 -0.95638672 8.67306641 -1.61328125 9.93359375 C-3 12 -3 12 -6 13 C-4.58707905 8.1725201 -2.57025846 4.2837641 0 0 Z " fill="#42BEA2" transform="translate(108,328)"/>
<path d="M0 0 C0.66 0.99 1.32 1.98 2 3 C1.07265428 4.48555383 0.13275187 5.96327506 -0.8125 7.4375 C-1.59560547 8.67306641 -1.59560547 8.67306641 -2.39453125 9.93359375 C-4 12 -4 12 -7 13 C-5.35821735 8.22390502 -2.73453298 4.20617096 0 0 Z " fill="#41BDA0" transform="translate(128,294)"/>
<path d="M0 0 C-0.33 0.66 -0.66 1.32 -1 2 C-3.6171875 2.8515625 -3.6171875 2.8515625 -6.875 3.625 C-8.47988281 4.01558594 -8.47988281 4.01558594 -10.1171875 4.4140625 C-13 5 -13 5 -16 5 C-16.33 5.66 -16.66 6.32 -17 7 C-17.66 6.34 -18.32 5.68 -19 5 C-16.21142 3.96995707 -13.41969712 2.95069003 -10.625 1.9375 C-9.8309375 1.64294922 -9.036875 1.34839844 -8.21875 1.04492188 C-7.45820312 0.77099609 -6.69765625 0.49707031 -5.9140625 0.21484375 C-5.2123291 -0.04176025 -4.5105957 -0.29836426 -3.78759766 -0.56274414 C-2 -1 -2 -1 0 0 Z " fill="#5ACCAE" transform="translate(529,280)"/>
<path d="M0 0 C3.3 0.99 6.6 1.98 10 3 C10 3.66 10 4.32 10 5 C8.741875 5.04125 7.48375 5.0825 6.1875 5.125 C5.47980469 5.14820313 4.77210938 5.17140625 4.04296875 5.1953125 C2 5 2 5 -1 3 C-0.67 2.01 -0.34 1.02 0 0 Z " fill="#171F34" transform="translate(993,1015)"/>
<path d="M0 0 C3.41021743 0.78697325 6.68885166 1.87119943 10 3 C10 3.66 10 4.32 10 5 C8.741875 5.04125 7.48375 5.0825 6.1875 5.125 C5.47980469 5.14820313 4.77210938 5.17140625 4.04296875 5.1953125 C2 5 2 5 -1 3 C-0.67 2.01 -0.34 1.02 0 0 Z " fill="#21293B" transform="translate(813,1015)"/>
<path d="M0 0 C1 2 1 2 1 6 C2.32 6.33 3.64 6.66 5 7 C5 8.32 5 9.64 5 11 C2.08482708 9.92598892 0.22189824 9.22189824 -2 7 C-2.25 4.5 -2.25 4.5 -2 2 C-1.34 1.34 -0.68 0.68 0 0 Z " fill="#30384A" transform="translate(994,999)"/>
<path d="M0 0 C3.3 0 6.6 0 10 0 C10.66 1.32 11.32 2.64 12 4 C8.44953334 4 6.89760758 3.75904303 3.75 2.5 C3.04359375 2.2215625 2.3371875 1.943125 1.609375 1.65625 C1.07828125 1.4396875 0.5471875 1.223125 0 1 C0 0.67 0 0.34 0 0 Z " fill="#1C2538" transform="translate(500,998)"/>
<path d="M0 0 C0.99 0.33 1.98 0.66 3 1 C2.2575 1.721875 1.515 2.44375 0.75 3.1875 C-2.01267269 5.90711047 -2.01267269 5.90711047 -4.1875 8.8125 C-4.785625 9.534375 -5.38375 10.25625 -6 11 C-6.66 11 -7.32 11 -8 11 C-6.52670958 5.99081256 -3.72484762 3.48192278 0 0 Z " fill="#3CC0A0" transform="translate(606,336)"/>
<path d="M0 0 C0.66 0.99 1.32 1.98 2 3 C1.34 3 0.68 3 0 3 C0.33 4.32 0.66 5.64 1 7 C0.01 7.33 -0.98 7.66 -2 8 C-2 9.65 -2 11.3 -2 13 C-2.66 13 -3.32 13 -4 13 C-3.67 13.99 -3.34 14.98 -3 16 C-3.99 16.33 -4.98 16.66 -6 17 C-4.33846988 11.14340094 -2.52958084 5.5409866 0 0 Z " fill="#4BAF9D" transform="translate(948,848)"/>
<path d="M0 0 C0.66 0.66 1.32 1.32 2 2 C0.40320196 3.3421492 -1.20270197 4.67347115 -2.8125 6 C-4.15248047 7.11375 -4.15248047 7.11375 -5.51953125 8.25 C-8 10 -8 10 -11 10 C-7.50640535 6.40365256 -3.88901869 3.16548033 0 0 Z " fill="#3CBF9E" transform="translate(265,143)"/>
<path d="M0 0 C-1.45399296 3.83325416 -3.3080115 5.28279605 -7 7 C-9.8125 7.1875 -9.8125 7.1875 -12 7 C-3.55172414 0 -3.55172414 0 0 0 Z " fill="#42C1A1" transform="translate(338,95)"/>
<path d="M0 0 C2.97 0 5.94 0 9 0 C9 0.66 9 1.32 9 2 C10.32 1.67 11.64 1.34 13 1 C13.66 1.99 14.32 2.98 15 4 C4.44191344 3.03644647 4.44191344 3.03644647 0 2 C0 1.34 0 0.68 0 0 Z " fill="#43BC9D" transform="translate(730,49)"/>
<path d="M0 0 C1.5 1.375 1.5 1.375 3 3 C3 3.66 3 4.32 3 5 C3.66 5.33 4.32 5.66 5 6 C4.34 6 3.68 6 3 6 C3.99 7.485 3.99 7.485 5 9 C4.67 9.99 4.34 10.98 4 12 C2.02 9.03 0.04 6.06 -2 3 C-1.34 2.67 -0.68 2.34 0 2 C0 1.34 0 0.68 0 0 Z " fill="#242D3F" transform="translate(713,1008)"/>
<path d="M0 0 C5.61 0 11.22 0 17 0 C17 0.33 17 0.66 17 1 C12.05 1 7.1 1 2 1 C1.67 2.32 1.34 3.64 1 5 C0.01 5.33 -0.98 5.66 -2 6 C-1.34 4.02 -0.68 2.04 0 0 Z " fill="#2BA68B" transform="translate(955,831)"/>
<path d="M0 0 C0.66 0.99 1.32 1.98 2 3 C1.1015625 6.13671875 1.1015625 6.13671875 -0.375 9.6875 C-0.85710938 10.86699219 -1.33921875 12.04648437 -1.8359375 13.26171875 C-2.22007813 14.16535156 -2.60421875 15.06898438 -3 16 C-4.49828872 12.11764181 -3.43110582 9.56550712 -2.0625 5.75 C-1.68222656 4.67234375 -1.30195312 3.5946875 -0.91015625 2.484375 C-0.45962891 1.25460937 -0.45962891 1.25460937 0 0 Z " fill="#53C0A6" transform="translate(56,454)"/>
<path d="M0 0 C0.33 0 0.66 0 1 0 C1.22577402 5.4185766 0.46670113 9.77487721 -1 15 C-1.66 15 -2.32 15 -3 15 C-2.44854729 9.76119922 -1.57077907 5.02649303 0 0 Z " fill="#4CBDA5" transform="translate(60,439)"/>
<path d="M0 0 C0.99 0.33 1.98 0.66 3 1 C3.33 1.99 3.66 2.98 4 4 C4.66 4 5.32 4 6 4 C6.33 3.34 6.66 2.68 7 2 C7.1875 4.375 7.1875 4.375 7 7 C6.01 7.66 5.02 8.32 4 9 C0 2.25 0 2.25 0 0 Z " fill="#101A2E" transform="translate(963,1007)"/>
<path d="M0 0 C1.32 1.65 2.64 3.3 4 5 C3.67 5.99 3.34 6.98 3 8 C2.34 8 1.68 8 1 8 C1 10.64 1 13.28 1 16 C0.67 16 0.34 16 0 16 C0 10.72 0 5.44 0 0 Z " fill="#D8D9DC" transform="translate(960,1004)"/>
<path d="M0 0 C1.79378179 2.69067269 2.97313958 5.08578257 4.1875 8.0625 C4.55230469 8.94035156 4.91710937 9.81820312 5.29296875 10.72265625 C6 13 6 13 5 15 C4.34 14.67 3.68 14.34 3 14 C3 12.35 3 10.7 3 9 C2.34 9 1.68 9 1 9 C-0.4783226 6.04335481 -0.06032783 3.25770263 0 0 Z " fill="#42AD94" transform="translate(982,834)"/>
<path d="M0 0 C2.46751239 3.70126859 2.30721156 5.62223532 2 10 C1 12.4375 1 12.4375 0 14 C-0.33 14 -0.66 14 -1 14 C-1.08333357 9.1666528 -0.95261487 4.76307437 0 0 Z " fill="#4EBFA3" transform="translate(39,526)"/>
<path d="M0 0 C0.66 0.33 1.32 0.66 2 1 C-1.12621626 4.39417765 -3.56541027 6.6062718 -8 8 C-8 7.01 -8 6.02 -8 5 C-6.3203125 3.578125 -6.3203125 3.578125 -4.125 2.25 C-3.40570313 1.80140625 -2.68640625 1.3528125 -1.9453125 0.890625 C-1.30335938 0.59671875 -0.66140625 0.3028125 0 0 Z " fill="#43C19F" transform="translate(316,107)"/>
<path d="M0 0 C-4.92984325 2.03993514 -8.57960425 3.40652968 -14 3 C-14.33 2.34 -14.66 1.68 -15 1 C-13.25215171 0.63536268 -11.50159498 0.2836922 -9.75 -0.0625 C-8.28820312 -0.35833984 -8.28820312 -0.35833984 -6.796875 -0.66015625 C-4.131881 -0.98397535 -2.51128277 -0.85503199 0 0 Z " fill="#59C7AA" transform="translate(535,25)"/>
<path d="M0 0 C2.64 0.33 5.28 0.66 8 1 C8.33 2.65 8.66 4.3 9 6 C5.9168649 4.80100302 2.93720508 3.52299523 0 2 C0 1.34 0 0.68 0 0 Z " fill="#10182C" transform="translate(875,1007)"/>
<path d="M0 0 C0.66 0.66 1.32 1.32 2 2 C1.46890625 2.45890625 0.9378125 2.9178125 0.390625 3.390625 C-3.18324699 6.49493717 -6.71854059 9.58181312 -10 13 C-10 10 -10 10 -7.8125 7.51953125 C-6.884375 6.62621094 -5.95625 5.73289062 -5 4.8125 C-4.071875 3.91144531 -3.14375 3.01039063 -2.1875 2.08203125 C-1.1046875 1.05142578 -1.1046875 1.05142578 0 0 Z " fill="#23A689" transform="translate(793,841)"/>
<path d="M0 0 C0.33 0 0.66 0 1 0 C1.66 5.61 2.32 11.22 3 17 C2.67 16.01 2.34 15.02 2 14 C1.34 14 0.68 14 0 14 C-0.91297308 9.02936879 -0.91297308 4.97063121 0 0 Z " fill="#4EB7A0" transform="translate(1214,515)"/>
<path d="M0 0 C0.33 0.99 0.66 1.98 1 3 C-2.33333333 6.33333333 -5.66666667 9.66666667 -9 13 C-9.66 12.67 -10.32 12.34 -11 12 C-7.37 8.04 -3.74 4.08 0 0 Z " fill="#33A68E" transform="translate(675,462)"/>
<path d="M0 0 C0.66 0.33 1.32 0.66 2 1 C-1.3 4.63 -4.6 8.26 -8 12 C-8.33 11.01 -8.66 10.02 -9 9 C-6.03 6.03 -3.06 3.06 0 0 Z " fill="#35B194" transform="translate(816,370)"/>
<path d="M0 0 C0.33 0 0.66 0 1 0 C1.29003091 5.60726423 1.13444318 9.1241995 -2 14 C-2.99 14.66 -3.98 15.32 -5 16 C-3.22666667 10.42666667 -3.22666667 10.42666667 -1.9375 8 C-0.71479283 5.39155804 -0.3872708 2.83998588 0 0 Z " fill="#31B395" transform="translate(899,265)"/>
<path d="M0 0 C-3.0684847 2.97550031 -4.46236331 3.96474513 -8.8125 4.25 C-9.864375 4.1675 -10.91625 4.085 -12 4 C-12.33 4.66 -12.66 5.32 -13 6 C-13.66 5.34 -14.32 4.68 -15 4 C-12.87875034 3.13656176 -10.75286928 2.28449352 -8.625 1.4375 C-6.84996094 0.72400391 -6.84996094 0.72400391 -5.0390625 -0.00390625 C-2 -1 -2 -1 0 0 Z " fill="#52C9AA" transform="translate(545,274)"/>
<path d="M0 0 C-3.27672915 2.90292752 -5.95282609 3.58029064 -10.25 4.1875 C-11.32765625 4.34605469 -12.4053125 4.50460937 -13.515625 4.66796875 C-14.33546875 4.77753906 -15.1553125 4.88710937 -16 5 C-15 3 -15 3 -12.890625 2.1484375 C-12.01921875 1.89320312 -11.1478125 1.63796875 -10.25 1.375 C-8.95835937 0.98441406 -8.95835937 0.98441406 -7.640625 0.5859375 C-5.00270994 0.00060132 -2.69198424 -0.10651736 0 0 Z " fill="#1C977E" transform="translate(803,1183)"/>
<path d="M0 0 C0.66 0.99 1.32 1.98 2 3 C1.21718695 4.33855056 0.42348123 5.67073644 -0.375 7 C-0.81585937 7.7425 -1.25671875 8.485 -1.7109375 9.25 C-2.13632812 9.8275 -2.56171875 10.405 -3 11 C-3.66 11 -4.32 11 -5 11 C-3.77472971 6.94718288 -2.30119506 3.55639236 0 0 Z " fill="#30A992" transform="translate(779,856)"/>
<path d="M0 0 C0.99 0.33 1.98 0.66 3 1 C1.92130607 1.96355244 0.83681257 2.92061417 -0.25 3.875 C-0.85328125 4.40867187 -1.4565625 4.94234375 -2.078125 5.4921875 C-3.97418746 6.9797487 -5.81290005 8.00322436 -8 9 C-6.40758592 4.70048197 -3.64459275 2.60328053 0 0 Z " fill="#13806D" transform="translate(697,711)"/>
<path d="M0 0 C1.1055189 0.93590504 2.20935453 1.87379858 3.3125 2.8125 C3.92738281 3.33457031 4.54226563 3.85664062 5.17578125 4.39453125 C6.85424679 5.87172469 8.43882034 7.40039131 10 9 C7.087425 8.91433603 5.43201976 8.42089045 3.33203125 6.375 C1.83908228 4.61608625 0.39563738 2.83686981 -1 1 C-0.67 0.67 -0.34 0.34 0 0 Z " fill="#24997F" transform="translate(495,525)"/>
<path d="M0 0 C0.66 0 1.32 0 2 0 C1.67 3.3 1.34 6.6 1 10 C0.67 10 0.34 10 0 10 C-0.33 8.35 -0.66 6.7 -1 5 C-2.32 6.32 -3.64 7.64 -5 9 C-5.66 8.67 -6.32 8.34 -7 8 C-5.88200014 6.66079162 -4.75538103 5.32877444 -3.625 4 C-2.68527344 2.88625 -2.68527344 2.88625 -1.7265625 1.75 C-1.15679688 1.1725 -0.58703125 0.595 0 0 Z " fill="#CBE9E3" transform="translate(819,481)"/>
<path d="M0 0 C-1.98 0.33 -3.96 0.66 -6 1 C-6 1.66 -6 2.32 -6 3 C-10.01804691 3.84098656 -13.01803543 4.05404945 -17 3 C-17 2.67 -17 2.34 -17 2 C-14.91952703 1.4678559 -12.83547707 0.94968214 -10.75 0.4375 C-9.58984375 0.14746094 -8.4296875 -0.14257812 -7.234375 -0.44140625 C-4.27909017 -0.95179964 -2.75565899 -1.02996165 0 0 Z " fill="#5DCEAF" transform="translate(479,295)"/>
<path d="M0 0 C0.66 0 1.32 0 2 0 C0.58832253 5.26170694 -1.74850232 8.72171358 -5 13 C-5.66 12.34 -6.32 11.68 -7 11 C-6.01 10.67 -5.02 10.34 -4 10 C-3.67 8.35 -3.34 6.7 -3 5 C-2.34 5 -1.68 5 -1 5 C-0.67 3.35 -0.34 1.7 0 0 Z " fill="#30B593" transform="translate(920,283)"/>
<path d="M0 0 C-1.5552912 0.70365602 -3.11964827 1.38729378 -4.6875 2.0625 C-5.55761719 2.44535156 -6.42773438 2.82820313 -7.32421875 3.22265625 C-10.32213864 4.0935848 -12.03280153 3.85006226 -15 3 C-15 2.67 -15 2.34 -15 2 C-13.25364835 1.46706165 -11.50272348 0.94909337 -9.75 0.4375 C-8.77546875 0.14746094 -7.8009375 -0.14257812 -6.796875 -0.44140625 C-4.03756068 -0.99249836 -2.6087176 -0.93789609 0 0 Z " fill="#50C7AA" transform="translate(489,35)"/>
<path d="M0 0 C0.33 0 0.66 0 1 0 C1.08096803 1.45742463 1.13917774 2.91612807 1.1875 4.375 C1.22230469 5.18710937 1.25710938 5.99921875 1.29296875 6.8359375 C1.19628906 7.55007813 1.09960938 8.26421875 1 9 C0.01 9.66 -0.98 10.32 -2 11 C-3.4783226 8.04335481 -3.06032783 5.25770263 -3 2 C-2.01 3.485 -2.01 3.485 -1 5 C-0.67 3.35 -0.34 1.7 0 0 Z " fill="#3D4456" transform="translate(547,1004)"/>
<path d="M0 0 C0.33 0 0.66 0 1 0 C1 2.31 1 4.62 1 7 C0.01 7.495 0.01 7.495 -1 8 C-1.65555119 10.52733235 -1.65555119 10.52733235 -2 13 C-2.33 13 -2.66 13 -3 13 C-3.31563182 7.73946963 -2.66590937 4.55426184 0 0 Z " fill="#404A5A" transform="translate(527,1000)"/>
<path d="M0 0 C2.9375 0.6875 2.9375 0.6875 4.9375 1.6875 C4.6075 2.6775 4.2775 3.6675 3.9375 4.6875 C0.6375 3.6975 -2.6625 2.7075 -6.0625 1.6875 C-3.0625 -0.3125 -3.0625 -0.3125 0 0 Z " fill="#1A2235" transform="translate(880.0625,997.3125)"/>
<path d="M0 0 C0 3 0 3 -1.53125 4.82421875 C-2.1809375 5.43910156 -2.830625 6.05398438 -3.5 6.6875 C-4.1496875 7.31011719 -4.799375 7.93273437 -5.46875 8.57421875 C-5.9740625 9.04472656 -6.479375 9.51523437 -7 10 C-7.33 9.01 -7.66 8.02 -8 7 C-5.36 4.69 -2.72 2.38 0 0 Z " fill="#1D2839" transform="translate(260,830)"/>
<path d="M0 0 C0.99 0.33 1.98 0.66 3 1 C0.69 3.31 -1.62 5.62 -4 8 C-4.99 7.67 -5.98 7.34 -7 7 C-4.69 4.69 -2.38 2.38 0 0 Z " fill="#249481" transform="translate(687,558)"/>
<path d="M0 0 C0.66 0.66 1.32 1.32 2 2 C0.02 4.31 -1.96 6.62 -4 9 C-4.99 8.34 -5.98 7.68 -7 7 C-4.69 4.69 -2.38 2.38 0 0 Z " fill="#2CA38B" transform="translate(749,491)"/>
<path d="M0 0 C0.99 0.33 1.98 0.66 3 1 C-0.465 3.97 -0.465 3.97 -4 7 C-4.66 6.67 -5.32 6.34 -6 6 C-4.02 4.02 -2.04 2.04 0 0 Z " fill="#30A48D" transform="translate(760,479)"/>
<path d="M0 0 C0.33 0.99 0.66 1.98 1 3 C-1.97 5.97 -4.94 8.94 -8 12 C-8.66 11.67 -9.32 11.34 -10 11 C-6.7 7.37 -3.4 3.74 0 0 Z " fill="#2EAB91" transform="translate(716,418)"/>
<path d="M0 0 C0.66 0.66 1.32 1.32 2 2 C-0.31 4.31 -2.62 6.62 -5 9 C-5.99 8.67 -6.98 8.34 -8 8 C-5.36 5.36 -2.72 2.72 0 0 Z " fill="#3EB79D" transform="translate(750,382)"/>
<path d="M0 0 C0.66 0.33 1.32 0.66 2 1 C-0.85276137 3.93200474 -3.65079784 6.64315404 -7 9 C-7.66 8.34 -8.32 7.68 -9 7 C-6.03 4.69 -3.06 2.38 0 0 Z " fill="#3EBF9E" transform="translate(275,135)"/>
<path d="M0 0 C3.63 0.66 7.26 1.32 11 2 C11 2.66 11 3.32 11 4 C7.7 3.67 4.4 3.34 1 3 C0.67 2.01 0.34 1.02 0 0 Z " fill="#35A18A" transform="translate(524,1221)"/>
<path d="M0 0 C-0.33 0.66 -0.66 1.32 -1 2 C-9.10332103 3.46125461 -9.10332103 3.46125461 -13 2 C-8.50343896 -0.24828052 -4.92127034 -0.16682272 0 0 Z " fill="#229980" transform="translate(757,1196)"/>
<path d="M0 0 C-2.54782974 2.97246802 -5.45340883 4.41535288 -9 6 C-9.66 6 -10.32 6 -11 6 C-11 5.34 -11 4.68 -11 4 C-9.35546875 2.67578125 -9.35546875 2.67578125 -7.1875 1.3125 C-6.47980469 0.85488281 -5.77210938 0.39726563 -5.04296875 -0.07421875 C-3 -1 -3 -1 0 0 Z " fill="#259B82" transform="translate(943,1115)"/>
<path d="M0 0 C0.33 0 0.66 0 1 0 C1 4.95 1 9.9 1 15 C0.67 15 0.34 15 0 15 C-0.33 12.03 -0.66 9.06 -1 6 C-1.99 6.495 -1.99 6.495 -3 7 C-1.125 1.125 -1.125 1.125 0 0 Z " fill="#E1E3E6" transform="translate(974,1005)"/>
<path d="M0 0 C0.33 1.32 0.66 2.64 1 4 C2.32 4.33 3.64 4.66 5 5 C4.01 5 3.02 5 2 5 C2 5.66 2 6.32 2 7 C2.99 7.33 3.98 7.66 5 8 C2.03 7.505 2.03 7.505 -1 7 C-1.33 5.68 -1.66 4.36 -2 3 C-1.34 3 -0.68 3 0 3 C0 2.01 0 1.02 0 0 Z " fill="#3C4454" transform="translate(873,1002)"/>
<path d="M0 0 C-3.5087188 3.09592835 -6.49197399 4.74194623 -11 6 C-11 5.34 -11 4.68 -11 4 C-9.35546875 2.67578125 -9.35546875 2.67578125 -7.1875 1.3125 C-6.47980469 0.85488281 -5.77210938 0.39726563 -5.04296875 -0.07421875 C-3 -1 -3 -1 0 0 Z " fill="#157E6D" transform="translate(668,737)"/>
<path d="M0 0 C4.2742558 1.5830577 6.26531794 4.50568404 9 8 C6 8 6 8 4.39453125 6.7578125 C3.87246094 6.21898437 3.35039062 5.68015625 2.8125 5.125 C2.28269531 4.59132813 1.75289063 4.05765625 1.20703125 3.5078125 C0 2 0 2 0 0 Z " fill="#329A86" transform="translate(489,577)"/>
<path d="M0 0 C-1.55500981 3.81684226 -4.03595495 6.19195732 -7 9 C-7.99 8.67 -8.98 8.34 -10 8 C-8.71451591 6.66070495 -7.42141845 5.32871357 -6.125 4 C-5.04605469 2.88625 -5.04605469 2.88625 -3.9453125 1.75 C-2 0 -2 0 0 0 Z " fill="#2C9A85" transform="translate(595,550)"/>
<path d="M0 0 C4.41889613 1.35021826 6.34345343 3.26115668 9 7 C8.01 7.33 7.02 7.66 6 8 C4.99403703 7.0479279 3.99538437 6.08812654 3 5.125 C2.443125 4.59132813 1.88625 4.05765625 1.3125 3.5078125 C0 2 0 2 0 0 Z " fill="#34A08B" transform="translate(533,517)"/>
<path d="M0 0 C-1.5830577 4.2742558 -4.50568404 6.26531794 -8 9 C-8 6 -8 6 -6.7578125 4.39453125 C-5.94957031 3.61142578 -5.94957031 3.61142578 -5.125 2.8125 C-4.59132813 2.28269531 -4.05765625 1.75289063 -3.5078125 1.20703125 C-2 0 -2 0 0 0 Z " fill="#1E9C83" transform="translate(744,499)"/>
<path d="M0 0 C2 1 2 1 3 3 C-0.96 3.66 -4.92 4.32 -9 5 C-8.67 4.01 -8.34 3.02 -8 2 C-6.865625 1.855625 -5.73125 1.71125 -4.5625 1.5625 C-1.19222799 1.38828522 -1.19222799 1.38828522 0 0 Z " fill="#3EBD9E" transform="translate(511,51)"/>
<path d="M0 0 C0.66 0.33 1.32 0.66 2 1 C-0.35468455 3.72647685 -2.5408417 4.98756342 -6 6 C-8.16015625 5.546875 -8.16015625 5.546875 -10 5 C-8.38007835 4.13624104 -6.75388139 3.28424146 -5.125 2.4375 C-4.22007812 1.96183594 -3.31515625 1.48617188 -2.3828125 0.99609375 C-1.20332031 0.50302734 -1.20332031 0.50302734 0 0 Z " fill="#42A894" transform="translate(869,1154)"/>
<path d="M0 0 C2.52588702 2.36292656 3.88820837 3.66462511 5 7 C4.01 7.66 3.02 8.32 2 9 C-0.29013653 5.5647952 -0.17842973 4.014669 0 0 Z " fill="#252C3F" transform="translate(567,1001)"/>
<path d="M0 0 C3.3 0 6.6 0 10 0 C10 1.32 10 2.64 10 4 C6.7 3.01 3.4 2.02 0 1 C0 0.67 0 0.34 0 0 Z " fill="#1C2538" transform="translate(817,998)"/>
<path d="M0 0 C-0.33 0.99 -0.66 1.98 -1 3 C-1.62648438 2.91621094 -2.25296875 2.83242188 -2.8984375 2.74609375 C-4.12433594 2.59333984 -4.12433594 2.59333984 -5.375 2.4375 C-6.59316406 2.28087891 -6.59316406 2.28087891 -7.8359375 2.12109375 C-10.04899186 1.81762672 -10.04899186 1.81762672 -12 3 C-12 2.01 -12 1.02 -12 0 C-10.56359829 -0.19573608 -9.12580496 -0.38127816 -7.6875 -0.5625 C-6.88699219 -0.66691406 -6.08648438 -0.77132812 -5.26171875 -0.87890625 C-3 -1 -3 -1 0 0 Z " fill="#2D3545" transform="translate(1008,999)"/>
<path d="M0 0 C3.3 0 6.6 0 10 0 C10.33 1.32 10.66 2.64 11 4 C9.35 3.67 7.7 3.34 6 3 C6 2.34 6 1.68 6 1 C4.02 1 2.04 1 0 1 C0 0.67 0 0.34 0 0 Z " fill="#20293A" transform="translate(421,998)"/>
<path d="M0 0 C0.66 0.33 1.32 0.66 2 1 C-0.64 3.64 -3.28 6.28 -6 9 C-6.66 8.67 -7.32 8.34 -8 8 C-3.375 2.25 -3.375 2.25 0 0 Z " fill="#0A7866" transform="translate(743,723)"/>
<path d="M0 0 C0.66 0 1.32 0 2 0 C2.99 1.98 3.98 3.96 5 6 C3.0625 6.5625 3.0625 6.5625 1 7 C0 6 0 6 -0.0625 2.9375 C-0.041875 1.968125 -0.02125 0.99875 0 0 Z " fill="#192336" transform="translate(813,1000)"/>
<path d="M0 0 C1.60080151 4.00200378 0.29279692 7.04556236 -1 11 C-1.66 10.67 -2.32 10.34 -3 10 C-2.67 7.36 -2.34 4.72 -2 2 C-1.34 2 -0.68 2 0 2 C0 1.34 0 0.68 0 0 Z " fill="#47BB9F" transform="translate(48,489)"/>
<path d="M0 0 C-1.44077046 3.36179774 -3.24750021 5.59156268 -6 8 C-6.66 8 -7.32 8 -8 8 C-6.48291727 4.46014029 -4.24676932 0 0 0 Z " fill="#2CB093" transform="translate(759,375)"/>
<path d="M0 0 C0.66 0.33 1.32 0.66 2 1 C1.04956626 2.33897583 0.08940853 3.67105427 -0.875 5 C-1.40867187 5.7425 -1.94234375 6.485 -2.4921875 7.25 C-3.23855469 8.11625 -3.23855469 8.11625 -4 9 C-4.66 9 -5.32 9 -6 9 C-4.68775452 5.06326356 -3.08089673 2.77280706 0 0 Z " fill="#42C7A5" transform="translate(385,307)"/>
<path d="M0 0 C0.66 0 1.32 0 2 0 C0.50163895 3.11198065 -1.19933758 6.0534615 -3 9 C-3.99 8.67 -4.98 8.34 -6 8 C-5.04956626 6.66102417 -4.08940853 5.32894573 -3.125 4 C-2.59132812 3.2575 -2.05765625 2.515 -1.5078125 1.75 C-1.01023438 1.1725 -0.51265625 0.595 0 0 Z " fill="#3CBC9F" transform="translate(160,249)"/>
<path d="M0 0 C-3.3 2.31 -6.6 4.62 -10 7 C-10 6.01 -10 5.02 -10 4 C-8.57421875 2.578125 -8.57421875 2.578125 -6.6875 1.25 C-6.07261719 0.80140625 -5.45773437 0.3528125 -4.82421875 -0.109375 C-3 -1 -3 -1 0 0 Z " fill="#3EBD9E" transform="translate(306,144)"/>
<path d="M0 0 C0.66 0.66 1.32 1.32 2 2 C1.875 4.5 1.875 4.5 1 7 C-0.98 7.99 -0.98 7.99 -3 9 C-2.01 6.03 -1.02 3.06 0 0 Z " fill="#3CA894" transform="translate(952,838)"/>
<path d="M0 0 C0.99 0.33 1.98 0.66 3 1 C1.35 2.98 -0.3 4.96 -2 7 C-2.99 6.67 -3.98 6.34 -5 6 C-3.35 4.02 -1.7 2.04 0 0 Z " fill="#219682" transform="translate(710,533)"/>
<path d="M0 0 C0.33 0.99 0.66 1.98 1 3 C-0.65 4.65 -2.3 6.3 -4 8 C-4.99 7.67 -5.98 7.34 -7 7 C-4.69 4.69 -2.38 2.38 0 0 Z " fill="#2FA18D" transform="translate(650,489)"/>
<path d="M0 0 C0.33 0.99 0.66 1.98 1 3 C-0.65 4.65 -2.3 6.3 -4 8 C-4.99 7.67 -5.98 7.34 -7 7 C-4.69 4.69 -2.38 2.38 0 0 Z " fill="#3CB298" transform="translate(734,399)"/>
<path d="M0 0 C1 4 1 4 -0.9375 7.25 C-1.618125 8.1575 -2.29875 9.065 -3 10 C-3.66 9.34 -4.32 8.68 -5 8 C-3.35 5.36 -1.7 2.72 0 0 Z " fill="#3CBC9E" transform="translate(140,276)"/>
<path d="M0 0 C0.66 0.33 1.32 0.66 2 1 C-0.64 3.64 -3.28 6.28 -6 9 C-6.33 8.34 -6.66 7.68 -7 7 C-4.78071806 4.09197539 -3.07030857 2.04687238 0 0 Z " fill="#D1EEE9" transform="translate(873,252)"/>
<path d="M0 0 C-2.55991624 2.01136276 -5.04590299 3.62845496 -8 5 C-8.66 4.34 -9.32 3.68 -10 3 C-3.375 -1.125 -3.375 -1.125 0 0 Z " fill="#45C2A1" transform="translate(355,87)"/>
<path d="M0 0 C0.99 0.33 1.98 0.66 3 1 C0.36 2.98 -2.28 4.96 -5 7 C-3.75023244 3.34683329 -3.32901247 2.21934164 0 0 Z " fill="#158070" transform="translate(676,728)"/>
<path d="M0 0 C0 3.58912412 -0.66436554 4.10857029 -3 6.6875 C-3.556875 7.31011719 -4.11375 7.93273437 -4.6875 8.57421875 C-5.120625 9.04472656 -5.55375 9.51523438 -6 10 C-6.66 9.67 -7.32 9.34 -8 9 C-5.36 6.03 -2.72 3.06 0 0 Z " fill="#3BBC9D" transform="translate(184,220)"/>
<path d="M0 0 C0.99 0.66 1.98 1.32 3 2 C-0.3 2 -3.6 2 -7 2 C-7 1.34 -7 0.68 -7 0 C-3.8195064 -1.06016453 -3.04021693 -1.04507457 0 0 Z " fill="#3EBE9D" transform="translate(604,40)"/>
<path d="M0 0 C7.50769231 0.61538462 7.50769231 0.61538462 10 2.5625 C10.33 3.036875 10.66 3.51125 11 4 C8.36 3.67 5.72 3.34 3 3 C3 2.34 3 1.68 3 1 C2.01 0.67 1.02 0.34 0 0 Z " fill="#37A48D" transform="translate(490,1214)"/>
<path d="M0 0 C0.33 0 0.66 0 1 0 C1.25 2.8125 1.25 2.8125 1 6 C-1 7.875 -1 7.875 -3 9 C-2.5020163 5.26512223 -2.12508244 3.18762365 0 0 Z " fill="#333C4E" transform="translate(514,914)"/>
<path d="M0 0 C4.37859255 0.50522222 6.81651224 3.17827222 10 6 C9.01 6.495 9.01 6.495 8 7 C6.66382648 6.02471263 5.3311249 5.04466681 4 4.0625 C3.2575 3.51722656 2.515 2.97195313 1.75 2.41015625 C1.1725 1.94480469 0.595 1.47945312 0 1 C0 0.67 0 0.34 0 0 Z " fill="#1B836F" transform="translate(551,709)"/>
<path d="M0 0 C-1.28519565 2.86697492 -2.57129254 4.97607712 -5 7 C-5.66 7 -6.32 7 -7 7 C-3.86206897 0 -3.86206897 0 0 0 Z " fill="#2E9B88" transform="translate(607,537)"/>
<path d="M0 0 C0.66 0.66 1.32 1.32 2 2 C0.35 3.65 -1.3 5.3 -3 7 C-3.99 6.67 -4.98 6.34 -6 6 C-4.02 4.02 -2.04 2.04 0 0 Z " fill="#40B89D" transform="translate(763,368)"/>
<path d="M0 0 C0 0.66 0 1.32 0 2 C-2.70879335 3.35439668 -5.00933268 3.06501451 -8 3 C-8.33 2.34 -8.66 1.68 -9 1 C-5.846632 0.29925156 -3.27275026 0 0 0 Z " fill="#53C7AA" transform="translate(519,27)"/>
<path d="M0 0 C0 0.66 0 1.32 0 2 C-2.35438733 3.42944945 -3.48032433 4.08661261 -6.25 3.625 C-6.8275 3.41875 -7.405 3.2125 -8 3 C-4.93882432 0.37613513 -4.26826873 0 0 0 Z " fill="#229A80" transform="translate(854,1163)"/>
<path d="M0 0 C3 3.75 3 3.75 3 6 C1.68 6 0.36 6 -1 6 C-1.33 4.68 -1.66 3.36 -2 2 C-1.34 2 -0.68 2 0 2 C0 1.34 0 0.68 0 0 Z " fill="#2A3044" transform="translate(279,1014)"/>
<path d="M0 0 C0.66 0.33 1.32 0.66 2 1 C2 2.32 2 3.64 2 5 C0.68 5.33 -0.64 5.66 -2 6 C-2 4.35 -2 2.7 -2 1 C-1.34 0.67 -0.68 0.34 0 0 Z " fill="#1C2438" transform="translate(960,998)"/>
<path d="M0 0 C1.32 0.66 2.64 1.32 4 2 C2.35 3.32 0.7 4.64 -1 6 C-1 2 -1 2 0 0 Z " fill="#243044" transform="translate(253,920)"/>
<path d="M0 0 C3.36720387 1.39332574 4.9859524 2.9789286 7 6 C4 6 4 6 1.8125 4.125 C0 2 0 2 0 0 Z " fill="#298E7B" transform="translate(520,680)"/>
<path d="M0 0 C-2.38573379 1.89213369 -4.07175348 3.02391783 -7 4 C-7.66 3.34 -8.32 2.68 -9 2 C-3.375 -1.125 -3.375 -1.125 0 0 Z " fill="#48C4A4" transform="translate(583,257)"/>
<path d="M0 0 C0.66 0 1.32 0 2 0 C4.09230769 4.43076923 4.09230769 4.43076923 3.625 7.3125 C3.41875 7.869375 3.2125 8.42625 3 9 C3 8.01 3 7.02 3 6 C2.34 6 1.68 6 1 6 C0.67 4.02 0.34 2.04 0 0 Z " fill="#54C6A8" transform="translate(920,251)"/>
<path d="M0 0 C0.99 0.33 1.98 0.66 3 1 C-1.39453125 5.00390625 -1.39453125 5.00390625 -3 6 C-3.99 5.67 -4.98 5.34 -6 5 C-1.60546875 0.99609375 -1.60546875 0.99609375 0 0 Z " fill="#3BBF9C" transform="translate(250,155)"/>
<path d="M0 0 C0.33 0 0.66 0 1 0 C1.33 2.31 1.66 4.62 2 7 C1.01 7 0.02 7 -1 7 C-1.625 5.1875 -1.625 5.1875 -2 3 C-1.34 2.01 -0.68 1.02 0 0 Z " fill="#172032" transform="translate(577,1013)"/>
<path d="M0 0 C0.99 0.33 1.98 0.66 3 1 C3 2.65 3 4.3 3 6 C2.01 6 1.02 6 0 6 C0 4.02 0 2.04 0 0 Z " fill="#181F34" transform="translate(430,1009)"/>
<path d="M0 0 C0.66 0.33 1.32 0.66 2 1 C1.67 3.31 1.34 5.62 1 8 C0.34 8 -0.32 8 -1 8 C-1.04241723 5.66705225 -1.04092937 3.33297433 -1 1 C-0.67 0.67 -0.34 0.34 0 0 Z " fill="#07152A" transform="translate(494,1003)"/>
<path d="M0 0 C0.66 0.99 1.32 1.98 2 3 C-1.22791555 5.1519437 -2.28400809 5.20086443 -6 5 C-5.195625 4.360625 -4.39125 3.72125 -3.5625 3.0625 C-1.7249496 1.59396498 -1.7249496 1.59396498 0 0 Z " fill="#273141" transform="translate(312,929)"/>
<path d="M0 0 C-0.75 1.9375 -0.75 1.9375 -2 4 C-4.125 4.75 -4.125 4.75 -6 5 C-3.74193548 0 -3.74193548 0 0 0 Z " fill="#299E84" transform="translate(564,538)"/>
<path d="M0 0 C0.66 0.33 1.32 0.66 2 1 C0.02 3.31 -1.96 5.62 -4 8 C-4.66 7.34 -5.32 6.68 -6 6 C-4.02 4.02 -2.04 2.04 0 0 Z " fill="#36AF93" transform="translate(803,384)"/>
<path d="M0 0 C-0.33 0.99 -0.66 1.98 -1 3 C-3.5625 4.1875 -3.5625 4.1875 -6 5 C-6.66 4.34 -7.32 3.68 -8 3 C-2.25 0 -2.25 0 0 0 Z " fill="#41C5A2" transform="translate(574,260)"/>
<path d="M0 0 C-3.26545761 1.88391785 -6.28111761 2.49287967 -10 3 C-4.37755102 -1.45918367 -4.37755102 -1.45918367 0 0 Z " fill="#56C9AB" transform="translate(870,227)"/>
<path d="M0 0 C0.66 0.66 1.32 1.32 2 2 C0.02 3.32 -1.96 4.64 -4 6 C-4.66 5.34 -5.32 4.68 -6 4 C-4.02 2.68 -2.04 1.36 0 0 Z " fill="#41C09F" transform="translate(288,126)"/>
<path d="M0 0 C0.66 0.66 1.32 1.32 2 2 C-1.3 3.32 -4.6 4.64 -8 6 C-8 5.34 -8 4.68 -8 4 C-5.36 2.68 -2.72 1.36 0 0 Z " fill="#3DBE9E" transform="translate(400,88)"/>
</svg>
