<svg width="768" height="768" viewBox="0 0 768 768" fill="none" xmlns="http://www.w3.org/2000/svg">
  <defs>
    <linearGradient id="shieldGradient" x1="228" y1="151" x2="559" y2="486" gradientUnits="userSpaceOnUse">
      <stop offset="0" stop-color="#45D0B0"/>
      <stop offset="1" stop-color="#0B7F73"/>
    </linearGradient>
    <linearGradient id="ringGradient" x1="96" y1="88" x2="676" y2="684" gradientUnits="userSpaceOnUse">
      <stop offset="0" stop-color="#39D4BF"/>
      <stop offset="1" stop-color="#159A89"/>
    </linearGradient>
  </defs>
  <rect width="768" height="768" fill="white"/>
  <circle cx="384" cy="384" r="364" stroke="url(#ringGradient)" stroke-width="14"/>
  <path d="M384.69 151C340.33 180.43 289.78 192.14 238.79 193.36C236.76 228.3 237.84 264.48 245.46 299.61L321.94 223.13C316.59 208.26 316.54 191.74 323.73 176.84C335.83 151.74 366.07 141.2 391.15 153.3C416.23 165.4 426.79 195.65 414.69 220.75C407.5 235.66 394.44 246.19 379.9 250.98L350.64 280.24L395.88 325.48L488.4 232.97C484.11 228.34 480.78 222.89 478.7 216.66C470.01 190.69 484.03 162.61 510 153.92C535.98 145.22 564.05 159.25 572.74 185.22C581.44 211.18 567.42 239.26 541.45 247.95C535.22 250.04 528.83 250.82 522.62 250.41L391.44 381.6L318.85 309.02L281.79 346.08L338.53 402.82L402.8 338.54C396.59 326.14 395.49 311.05 401.17 297.86C411.96 272.79 441.04 261.22 466.11 272.01C491.18 282.79 502.74 311.88 491.96 336.95C486.27 350.15 476.08 360.02 463.83 365.32V398.01L418.46 443.37V418.37L440.94 395.89V365.32C435.82 363.1 431.12 360.07 427.04 356.31L338.53 444.82L249.57 355.86C270.37 411.71 309.26 459.71 385.24 486.83C502.8 444.66 531.12 333.43 528.53 202.14C478.58 196.77 428.92 182.53 384.69 151Z" fill="url(#shieldGradient)"/>
  <path d="M322.89 562.4H297.86C289.55 562.4 283.93 558.19 281.01 552.7L263.12 565.42C269.46 579.44 283.79 589.45 301.27 589.45H332.15C351.88 589.45 365.4 576.4 365.4 557.61C365.4 540.34 355.24 528.29 335.71 523.3L313.7 517.79C303.7 515.3 298.44 511.34 298.44 504.57C298.44 496.48 304.57 491.1 314.86 491.1H338.18C346.49 491.1 352.09 495.31 354.83 500.8L372.72 488.08C366.38 474.06 352.05 464.05 334.59 464.05H304.44C285.65 464.05 272.13 476.75 272.13 494.78C272.13 511.34 281.8 523.1 301.27 528.29L323.28 533.99C333.95 536.75 339.09 541.16 339.09 548.37C339.09 556.3 332.96 562.4 322.89 562.4Z" fill="#172036"/>
  <path d="M392.66 466.24H420.87V586.9H392.66V466.24Z" fill="#172036"/>
  <path d="M496.44 464.05C460.3 464.05 435.49 490.61 435.49 526.75C435.49 562.89 460.3 589.45 496.44 589.45C531.5 589.45 555.88 564.79 555.88 526.75C555.88 488.71 531.5 464.05 496.44 464.05ZM496.44 561.99C477.57 561.99 464.06 547.57 464.06 526.75C464.06 505.92 477.57 491.5 496.44 491.5C515.27 491.5 527.31 505.92 527.31 526.75C527.31 547.57 515.27 561.99 496.44 561.99Z" fill="#45D0B0"/>
  <path d="M563.42 586.9H593.16L603.37 558.93H649.71L659.89 586.9H690L644.24 466.24H609.63L563.42 586.9ZM611.92 535.58L626.52 495.53L641.15 535.58H611.92Z" fill="#45D0B0"/>
  <path d="M154.81 608.58V597.08H163.64C165.7 597.08 167.33 597.66 168.53 598.82C169.73 599.98 170.33 601.5 170.33 603.39C170.33 605.29 169.73 606.81 168.53 607.95C167.33 609.1 165.7 609.67 163.64 609.67H156.71V620.85H154.81V608.58ZM156.71 607.9H163.54C165.07 607.9 166.28 607.49 167.17 606.67C168.06 605.85 168.5 604.76 168.5 603.39C168.5 602.03 168.06 600.94 167.17 600.11C166.28 599.28 165.07 598.86 163.54 598.86H156.71V607.9Z" fill="#172036"/>
  <path d="M178.44 620.85V597.08H180.34V619.07H192.94V620.85H178.44Z" fill="#172036"/>
  <path d="M202.02 620.85H200.05L209.29 597.08H211.28L220.52 620.85H218.55L215.98 614.12H204.59L202.02 620.85ZM205.24 612.34H215.33L210.28 599.08L205.24 612.34Z" fill="#172036"/>
  <path d="M229.54 620.85V598.86H221.1V597.08H239.9V598.86H231.44V620.85H229.54Z" fill="#172036"/>
  <path d="M247.96 620.85V597.08H263.76V598.86H249.86V607.71H262.82V609.49H249.86V620.85H247.96Z" fill="#172036"/>
  <path d="M281.17 621.18C277.83 621.18 275.07 620.01 272.89 617.67C270.72 615.34 269.63 612.41 269.63 608.88C269.63 605.35 270.72 602.42 272.89 600.09C275.07 597.75 277.83 596.58 281.17 596.58C284.53 596.58 287.28 597.75 289.44 600.09C291.61 602.42 292.69 605.35 292.69 608.88C292.69 612.41 291.61 615.34 289.44 617.67C287.28 620.01 284.53 621.18 281.17 621.18ZM281.17 619.36C283.97 619.36 286.26 618.38 288.06 616.43C289.87 614.48 290.77 611.96 290.77 608.88C290.77 605.79 289.87 603.28 288.06 601.33C286.26 599.38 283.97 598.4 281.17 598.4C278.37 598.4 276.07 599.38 274.26 601.33C272.47 603.28 271.57 605.79 271.57 608.88C271.57 611.96 272.47 614.48 274.26 616.43C276.07 618.38 278.37 619.36 281.17 619.36Z" fill="#172036"/>
  <path d="M302.82 620.85V597.08H311.75C313.77 597.08 315.37 597.63 316.55 598.73C317.72 599.83 318.31 601.29 318.31 603.1C318.31 604.64 317.89 605.93 317.06 606.96C316.23 608 315.12 608.66 313.73 608.96L319.63 620.85H317.47L311.8 609.19H304.72V620.85H302.82ZM304.72 607.43H311.73C313.21 607.43 314.38 607.04 315.23 606.26C316.1 605.48 316.53 604.43 316.53 603.1C316.53 601.77 316.1 600.72 315.23 599.94C314.38 599.16 313.21 598.77 311.73 598.77H304.72V607.43Z" fill="#172036"/>
  <path d="M328.14 620.85V597.08H330.68L338.91 617.79L347.15 597.08H349.71V620.85H347.81V600.06L339.55 620.85H338.27L330.04 600.06V620.85H328.14Z" fill="#172036"/>
  <path d="M361.44 620.85H359.47L368.71 597.08H370.7L379.94 620.85H377.97L375.4 614.12H364.01L361.44 620.85ZM364.66 612.34H374.75L369.7 599.08L364.66 612.34Z" fill="#172036"/>
  <path d="M388.96 620.85V598.86H380.52V597.08H399.32V598.86H390.86V620.85H388.96Z" fill="#172036"/>
  <path d="M407.38 620.85V597.08H409.28V620.85H407.38Z" fill="#172036"/>
  <path d="M428.09 621.18C424.75 621.18 421.99 620.01 419.81 617.67C417.64 615.34 416.55 612.41 416.55 608.88C416.55 605.35 417.64 602.42 419.81 600.09C421.99 597.75 424.75 596.58 428.09 596.58C431.45 596.58 434.2 597.75 436.36 600.09C438.53 602.42 439.61 605.35 439.61 608.88C439.61 612.41 438.53 615.34 436.36 617.67C434.2 620.01 431.45 621.18 428.09 621.18ZM428.09 619.36C430.89 619.36 433.18 618.38 434.98 616.43C436.79 614.48 437.69 611.96 437.69 608.88C437.69 605.79 436.79 603.28 434.98 601.33C433.18 599.38 430.89 598.4 428.09 598.4C425.29 598.4 422.99 599.38 421.18 601.33C419.39 603.28 418.49 605.79 418.49 608.88C418.49 611.96 419.39 614.48 421.18 616.43C422.99 618.38 425.29 619.36 428.09 619.36Z" fill="#172036"/>
  <path d="M449.74 620.85V597.08H452.25L466.63 617.62V597.08H468.53V620.85H466.03L451.64 600.28V620.85H449.74Z" fill="#172036"/>
  <path d="M476.51 620.85V597.08H478.41V620.85H476.51Z" fill="#172036"/>
  <path d="M488.13 620.85V597.08H490.65L505.03 617.62V597.08H506.93V620.85H504.42L490.04 600.28V620.85H488.13Z" fill="#172036"/>
  <path d="M526.01 621.18C522.55 621.18 519.7 620.02 517.47 617.69C515.24 615.36 514.13 612.42 514.13 608.88C514.13 605.35 515.24 602.42 517.47 600.09C519.7 597.75 522.55 596.58 526.01 596.58C528.31 596.58 530.41 597.09 532.31 598.09C534.21 599.08 535.61 600.44 536.53 602.16L534.94 603.02C534.2 601.58 533.03 600.43 531.43 599.56C529.84 598.7 528.03 598.26 526.01 598.26C523.12 598.26 520.75 599.23 518.91 601.18C517.08 603.11 516.16 605.68 516.16 608.88C516.16 612.07 517.08 614.64 518.91 616.57C520.75 618.52 523.12 619.49 526.01 619.49C528.55 619.49 530.69 618.76 532.45 617.29C534.22 615.82 535.18 613.84 535.35 611.34H525.58V609.59H537.31V610.37C537.31 613.66 536.28 616.39 534.24 618.56C532.19 620.11 529.45 621.18 526.01 621.18Z" fill="#172036"/>
  <path d="M547.75 620.85V597.08H560.47C562.47 597.08 564.11 597.67 565.36 598.85C566.63 600.03 567.26 601.52 567.26 603.34C567.26 605.65 566.25 607.36 564.22 608.46C566.84 609.45 568.14 611.39 568.14 614.28C568.14 616.16 567.47 617.74 566.14 619.02C564.8 620.24 563.11 620.85 561.06 620.85H547.75ZM549.65 607.87H560.47C561.89 607.87 563.04 607.46 563.93 606.62C564.81 605.79 565.26 604.69 565.26 603.34C565.26 601.99 564.81 600.89 563.93 600.05C563.04 599.21 561.89 598.8 560.47 598.8H549.65V607.87ZM549.65 619.1H561.06C562.54 619.1 563.76 618.64 564.7 617.73C565.65 616.81 566.12 615.67 566.12 614.31C566.12 612.96 565.65 611.83 564.7 610.91C563.76 609.99 562.54 609.53 561.06 609.53H549.65V619.1Z" fill="#172036"/>
  <path d="M576.15 620.85V597.08H577.92V620.85H576.15Z" fill="#172036"/>
  <path d="M587.77 620.85V597.08H589.67V619.07H602.27V620.85H587.77Z" fill="#172036"/>
  <path d="M610.78 620.85V597.08H612.68V620.85H610.78Z" fill="#172036"/>
</svg>